<svg width="31" height="36" viewBox="0 0 31 36" fill="none" xmlns="http://www.w3.org/2000/svg">
<path d="M0.0130559 26.2186C0.0130559 26.2186 0.277707 25.9381 0.709467 25.4842C1.13447 25.027 1.73263 24.4702 2.36087 23.782C2.68018 23.4488 3.01113 23.1087 3.35397 22.7784C3.69343 22.4466 4.0308 22.0846 4.37387 21.7712C5.06524 21.1593 5.73494 20.5579 6.40819 20.2164L5.04437 20.2451C5.04437 20.2451 5.31567 19.9595 5.76956 19.5288C6.2288 19.1215 6.83769 18.4906 7.53897 17.8669C8.94259 16.5742 10.5751 15.0836 12.3123 14.3854C12.3123 14.3854 12.1083 14.316 11.901 14.245C11.6935 14.1656 11.4878 14.0912 11.4878 14.0912C11.4878 14.0912 11.5742 14.033 11.7271 13.9235C11.8749 13.8074 12.0908 13.645 12.3685 13.4584C12.641 13.265 12.989 13.0623 13.3547 12.814C13.7205 12.5657 14.1381 12.3049 14.5978 12.052C15.0438 11.7841 15.5132 11.5025 16.0333 11.2538C16.5501 11.0034 17.0565 10.7314 17.6292 10.5206C18.207 10.3163 18.7476 10.0942 19.3599 9.95662C19.6609 9.88539 19.9689 9.82582 20.2888 9.78454C20.5952 9.73673 20.9051 9.69894 21.2254 9.68282L20.4761 9.12085C20.4761 9.12085 20.6948 9.039 21.0688 8.90301C21.4462 8.76866 21.9941 8.5917 22.6119 8.36513C23.2297 8.13857 23.9984 7.90994 24.7635 7.65451C25.5186 7.41096 26.3509 7.1714 27.1843 7.00733C27.1843 7.00733 26.9206 7.47573 26.4603 8.29919C26.3406 8.50386 26.2246 8.73533 26.0736 8.97902C25.9208 9.2177 25.7532 9.4784 25.5757 9.75098C25.3965 10.0269 25.2093 10.3198 25.0088 10.6313C24.7998 10.9345 24.5641 11.2414 24.3269 11.5685C23.3952 12.8934 22.1427 14.3133 20.7379 15.7638C19.3008 17.1862 17.6469 18.5831 15.8989 19.8469C14.1219 21.076 12.2574 22.167 10.4338 23.0527C8.59445 23.8933 6.83889 24.6035 5.27762 25.041C4.88823 25.157 4.519 25.2745 4.16294 25.3733C3.80501 25.4588 3.46212 25.5389 3.14264 25.6138C2.82317 25.6886 2.5221 25.7598 2.24446 25.8257C1.96506 25.8866 1.70711 25.9203 1.47281 25.9655C0.543758 26.1291 0.0130559 26.2186 0.0130559 26.2186Z" fill="url(#paint0_linear_44_61)"/>
<path d="M0.0130559 26.2186C0.0130559 26.2186 0.339457 26.4055 0.901993 26.6814C1.46267 26.9439 2.27694 27.3455 3.22033 27.6179C3.69215 27.7625 4.20252 27.9049 4.73445 28.0285C5.26464 28.1471 5.80579 28.2085 6.3502 28.2632C7.45091 28.3824 8.52861 28.2905 9.45488 28.0463L8.06054 29.0352C8.06054 29.0352 8.53891 29.0455 9.33884 29.011C10.1458 28.9967 11.2479 28.8541 12.5099 28.6137C13.1443 28.4993 13.7875 28.2976 14.4593 28.0971C14.7901 27.9903 15.1361 27.8865 15.4665 27.7545C15.7952 27.6175 16.1271 27.4737 16.454 27.3232C17.1093 27.0189 17.7525 26.688 18.3292 26.2791C18.9076 25.8752 19.4625 25.4682 19.9191 24.9888C19.9191 24.9888 19.8755 25.2428 19.832 25.4968C19.7817 25.7475 19.7331 25.9948 19.7331 25.9948C19.7331 25.9948 19.8612 25.9108 20.0923 25.76C20.3167 25.5975 20.6372 25.3566 21.024 25.0476C21.4056 24.7319 21.8723 24.3782 22.3392 23.9205C22.8062 23.4627 23.3043 22.9492 23.8034 22.3903C24.2838 21.8099 24.7533 21.1742 25.1907 20.5189C25.6264 19.8585 25.9889 19.1253 26.3047 18.4112C26.6306 17.702 26.823 16.9241 26.9608 16.1991C27.0262 15.8307 27.0682 15.4677 27.0818 15.1117C27.0836 14.7459 27.0619 14.3854 27.0101 14.0355L27.7594 14.5974C27.7594 14.5974 27.8126 14.3148 27.8801 13.8474C27.9442 13.3784 28.0276 12.7312 28.0221 11.9577C28.0217 11.1909 28.017 10.3553 27.8659 9.48648C27.7215 8.62093 27.5001 7.76818 27.1843 7.00733C27.1843 7.00733 26.9206 7.47573 26.4603 8.29919C26.3406 8.50386 26.2246 8.73533 26.0736 8.97902C25.9208 9.2177 25.7532 9.4784 25.5757 9.75098C25.3965 10.0269 25.2093 10.3198 25.0088 10.6313C24.7998 10.9345 24.5641 11.2414 24.3269 11.5685C23.3952 12.8934 22.1427 14.3133 20.7379 15.7638C19.3008 17.1862 17.6469 18.5831 15.8989 19.8469C14.1219 21.076 12.2574 22.167 10.4338 23.0527C8.59445 23.8933 6.83889 24.6035 5.27762 25.041C4.88823 25.157 4.519 25.2745 4.16294 25.3733C3.80501 25.4588 3.46212 25.5389 3.14264 25.6138C2.82317 25.6886 2.5221 25.7598 2.24446 25.8257C1.96506 25.8866 1.70711 25.9203 1.47281 25.9655C0.543758 26.1291 0.0130559 26.2186 0.0130559 26.2186Z" fill="url(#paint1_linear_44_61)"/>
<defs>
<linearGradient id="paint0_linear_44_61" x1="0.237064" y1="16.3556" x2="26.92" y2="17.0085" gradientUnits="userSpaceOnUse">
<stop stop-color="#5FA657"/>
<stop offset="1" stop-color="#BCEF57"/>
</linearGradient>
<linearGradient id="paint1_linear_44_61" x1="0.205053" y1="17.6637" x2="27.8515" y2="18.3402" gradientUnits="userSpaceOnUse">
<stop stop-color="#BCEF57"/>
<stop offset="0.9224" stop-color="#90CC56"/>
</linearGradient>
</defs>
</svg>
