<svg width="18" height="18" viewBox="0 0 18 18" fill="none" xmlns="http://www.w3.org/2000/svg">
<path d="M9.00299 15.375L8.99999 8.62499M15.1942 12.8685C15.7948 12.4462 16.2452 11.8435 16.48 11.1478C16.7148 10.4522 16.7218 9.69987 16.5 8.99999C16.0451 7.56374 14.6512 6.77661 13.1449 6.77811H12.2745C12.0668 5.96834 11.6781 5.21624 11.1376 4.57844C10.5972 3.94065 9.91909 3.43377 9.15439 3.09598C8.38969 2.75819 7.55832 2.59829 6.72288 2.62832C5.88743 2.65835 5.06969 2.87753 4.33122 3.26935C3.59274 3.66117 2.95278 4.21542 2.45952 4.89038C1.96626 5.56533 1.63256 6.3434 1.48354 7.16599C1.33451 7.98858 1.37405 8.83427 1.59918 9.63937C1.82431 10.4445 2.22915 11.188 2.78324 11.814" stroke="white" stroke-width="1.5" stroke-linecap="round" stroke-linejoin="round"/>
<path d="M11.3865 10.3636L9.00003 7.97705L6.61353 10.3636" stroke="white" stroke-width="1.5" stroke-linecap="round" stroke-linejoin="round"/>
</svg>
