<svg width="20" height="20" viewBox="0 0 20 20" fill="none" xmlns="http://www.w3.org/2000/svg">
<g clip-path="url(#clip0_59_168)">
<path d="M7.33744 3.7583L11.1533 5.96163V10.3675L7.33744 12.57L3.52161 10.3675V5.96163L7.33744 3.7583Z" stroke="#39B54B" stroke-width="1.25" stroke-linejoin="round"/>
<path d="M11.1634 10.3223L14.9784 12.5248V16.9306L11.1634 19.1339L7.34753 16.9306V12.5248L11.1634 10.3223Z" stroke="#39B54B" stroke-width="1.25" stroke-linejoin="round"/>
<path d="M14.9883 3.7583L18.8049 5.96163V10.3675L14.9883 12.57L11.1733 10.3675V5.96163L14.9883 3.7583Z" stroke="#39B54B" stroke-width="1.25" stroke-linejoin="round"/>
<path d="M14.96 3.78063V0.688965M16.6491 9.12896V6.9973M11.5666 16.8065L9.5983 15.544M7.47497 9.9848L9.1058 9.06313M7.3583 17.0198L3.68497 19.3115M3.57664 5.9998L0.739136 4.54313M15.1416 16.9831L18.3425 19.0565" stroke="#39B54B" stroke-width="1.25" stroke-linecap="round" stroke-linejoin="round"/>
</g>
<defs>
<clipPath id="clip0_59_168">
<rect width="20" height="20" fill="white"/>
</clipPath>
</defs>
</svg>
