<svg width="17" height="17" viewBox="0 0 17 17" fill="none" xmlns="http://www.w3.org/2000/svg">
<path d="M12.4224 5.74085C12.4909 5.67483 12.5454 5.59584 12.583 5.5085C12.6206 5.42116 12.6404 5.32721 12.6412 5.23214C12.6421 5.13707 12.624 5.04277 12.5881 4.95476C12.5521 4.86674 12.499 4.78677 12.4318 4.71951C12.3646 4.65225 12.2847 4.59904 12.1967 4.563C12.1087 4.52695 12.0144 4.50879 11.9194 4.50957C11.8243 4.51035 11.7303 4.53006 11.6429 4.56755C11.5556 4.60503 11.4765 4.65954 11.4104 4.7279L8.54057 7.59681L5.67166 4.7279C5.6061 4.65755 5.52705 4.60112 5.43922 4.56199C5.35139 4.52285 5.25657 4.50181 5.16043 4.50011C5.06429 4.49842 4.96879 4.5161 4.87963 4.55211C4.79047 4.58813 4.70948 4.64173 4.64148 4.70972C4.57349 4.77772 4.51989 4.85871 4.48388 4.94787C4.44786 5.03703 4.43018 5.13253 4.43187 5.22867C4.43357 5.32481 4.45461 5.41963 4.49375 5.50746C4.53289 5.59529 4.58931 5.67434 4.65966 5.7399L7.52667 8.60977L4.65775 11.4787C4.53127 11.6144 4.46241 11.7939 4.46569 11.9794C4.46896 12.165 4.54411 12.3419 4.6753 12.4731C4.80649 12.6043 4.98348 12.6795 5.16898 12.6827C5.35448 12.686 5.53401 12.6172 5.66975 12.4907L8.54057 9.62176L11.4095 12.4916C11.5452 12.6181 11.7248 12.687 11.9103 12.6837C12.0958 12.6804 12.2727 12.6053 12.4039 12.4741C12.5351 12.3429 12.6103 12.1659 12.6135 11.9804C12.6168 11.7949 12.548 11.6154 12.4215 11.4796L9.55448 8.60977L12.4224 5.74085Z" fill="#383838"/>
</svg>
