<svg width="24" height="24" viewBox="0 0 24 24" fill="none" xmlns="http://www.w3.org/2000/svg">
<g clip-path="url(#clip0_101_212)">
<path d="M1.03308 19.3556L3.90997 7.57449L7.74575 5.24561L11.9573 7.29872L11.9237 18.8761L6.17019 16.1363L1.03308 19.3556Z" stroke="#383838" stroke-width="0.75" stroke-linecap="round" stroke-linejoin="round"/>
<path d="M8.03725 5.55378C8.06507 5.34855 7.92124 5.15963 7.71601 5.13182C7.51078 5.104 7.32186 5.24783 7.29405 5.45306L7.66565 5.50342L8.03725 5.55378ZM6.70377 15.393C6.73158 15.1878 6.58776 14.9989 6.38253 14.9711C6.1773 14.9433 5.98838 15.0871 5.96056 15.2923L6.33216 15.3427L6.70377 15.393ZM6.20301 13.5034C6.1752 13.7086 6.31902 13.8975 6.52425 13.9253C6.72948 13.9531 6.9184 13.8093 6.94622 13.6041L6.57462 13.5537L6.20301 13.5034ZM7.18867 11.8151C7.21648 11.6099 7.07266 11.421 6.86743 11.3932C6.6622 11.3653 6.47328 11.5092 6.44546 11.7144L6.81707 11.7648L7.18867 11.8151ZM6.68792 9.92544C6.6601 10.1307 6.80393 10.3196 7.00916 10.3474C7.21439 10.3752 7.40331 10.2314 7.43112 10.0262L7.05952 9.97581L6.68792 9.92544ZM7.67357 8.23721C7.70139 8.03198 7.55756 7.84306 7.35233 7.81525C7.1471 7.78743 6.95818 7.93126 6.93037 8.13649L7.30197 8.18685L7.67357 8.23721ZM7.17282 6.34753C7.14501 6.55276 7.28883 6.74168 7.49406 6.7695C7.69929 6.79731 7.88821 6.65349 7.91603 6.44826L7.54442 6.3979L7.17282 6.34753ZM6.21094 16.2371L6.58254 16.2875L6.70377 15.393L6.33216 15.3427L5.96056 15.2923L5.83933 16.1868L6.21094 16.2371ZM6.57462 13.5537L6.94622 13.6041L7.18867 11.8151L6.81707 11.7648L6.44546 11.7144L6.20301 13.5034L6.57462 13.5537ZM7.05952 9.97581L7.43112 10.0262L7.67357 8.23721L7.30197 8.18685L6.93037 8.13649L6.68792 9.92544L7.05952 9.97581ZM7.54442 6.3979L7.91603 6.44826L8.03725 5.55378L7.66565 5.50342L7.29405 5.45306L7.17282 6.34753L7.54442 6.3979Z" fill="#383838"/>
<path d="M17.592 11.9263C17.592 11.7192 17.4241 11.5513 17.217 11.5513C17.0099 11.5513 16.842 11.7192 16.842 11.9263L17.217 11.9263L17.592 11.9263ZM16.842 13.004C16.8421 13.2112 17.0099 13.379 17.2171 13.379C17.4242 13.379 17.5921 13.2111 17.592 13.004L17.217 13.004L16.842 13.004ZM17.5921 15.1595C17.5921 14.9524 17.4242 14.7845 17.2171 14.7845C17.01 14.7845 16.8421 14.9524 16.8421 15.1595L17.2171 15.1595L17.5921 15.1595ZM17.217 11.9263L16.842 11.9263L16.842 13.004L17.217 13.004L17.592 13.004L17.592 11.9263L17.217 11.9263ZM17.2171 15.1595L16.8421 15.1595L16.8421 16.2372L17.2171 16.2372L17.5921 16.2372L17.5921 15.1595L17.2171 15.1595Z" fill="#383838"/>
<path d="M11.9573 7.29862L13.4993 6.47839" stroke="#383838" stroke-width="0.75" stroke-linecap="round" stroke-linejoin="round"/>
<path d="M11.9238 18.876L17.198 16.2049L22.9698 19.3555L20.3487 8.53333" stroke="#383838" stroke-width="0.75" stroke-linecap="round" stroke-linejoin="round"/>
<path d="M19.8742 4.98907C19.8742 5.54717 19.7027 6.06531 19.4078 6.49287L17.1564 10.3036L14.9918 6.44206C14.7177 6.02414 14.5594 5.52528 14.5594 4.98907C14.5594 3.52162 15.7492 2.33191 17.2166 2.33191C18.6841 2.33191 19.8738 3.52162 19.8738 4.98907H19.8742Z" stroke="#383838" stroke-width="0.677796" stroke-miterlimit="10"/>
<path d="M17.2171 6.01567C17.7841 6.01567 18.2437 5.55603 18.2437 4.98904C18.2437 4.42204 17.7841 3.9624 17.2171 3.9624C16.6501 3.9624 16.1904 4.42204 16.1904 4.98904C16.1904 5.55603 16.6501 6.01567 17.2171 6.01567Z" stroke="#383838" stroke-width="0.677796" stroke-miterlimit="10"/>
</g>
<defs>
<clipPath id="clip0_101_212">
<rect width="24" height="24" fill="white"/>
</clipPath>
</defs>
</svg>
