<svg width="152" height="31" viewBox="0 0 152 31" fill="none" xmlns="http://www.w3.org/2000/svg">
<g clip-path="url(#clip0_1_1610)">
<path d="M9.71969 25.192L6.89165 27.4746C4.20752 25.8473 1.86585 23.7155 0 21.2145C6.84657 22.4926 9.71969 25.192 9.71969 25.192Z" fill="#7FC736"/>
<path d="M10.655 24.2593C8.16755 22.4002 3.87561 20.773 3.87561 20.773C9.12589 20.5402 13.6931 22.8648 13.6931 22.8648L10.655 24.2593Z" fill="#7FC736"/>
<path d="M14.8626 22.4001C12.7588 20.5411 9.71973 20.3083 9.71973 20.3083C14.1613 20.0756 17.4268 21.3547 17.4268 21.3547L14.8626 22.4001Z" fill="#7FC736"/>
<path d="M39.2059 21.0361C35.4474 26.1755 29.6992 29.7819 23.0886 30.7425C25.1224 27.858 30.1203 22.3276 39.2059 21.0361Z" fill="#7FC736"/>
<path d="M39.2059 21.0361C35.4474 26.1755 29.6992 29.7819 23.0886 30.7425C25.1224 27.858 30.1203 22.3276 39.2059 21.0361Z" fill="#39B54B"/>
<path d="M34.44 21.0056C27.3651 23.4675 22.8899 28.2844 21.2495 30.8245C21.2236 30.8655 21.1987 30.9056 21.1737 30.9447H21.1718C20.6317 30.9819 20.0868 31 19.5372 31C17.8354 31 16.1758 30.8255 14.5728 30.4954C23.1374 21.4406 34.44 21.0056 34.44 21.0056Z" fill="#7FC736"/>
<path d="M30.2901 20.4847C22.8564 21.6217 15.1964 27.9133 13.2279 30.1768C11.4464 29.7027 9.74464 29.0312 8.15027 28.1871C17.3193 19.9039 30.2901 20.4847 30.2901 20.4847Z" fill="#39B54B"/>
<path d="M17.4268 21.3538L14.8626 22.4001C12.7588 20.5411 9.71973 20.3084 9.71973 20.3084C14.1613 20.0756 17.4268 21.3538 17.4268 21.3538Z" fill="#39B54B"/>
<path d="M13.6931 22.8646L10.654 24.2592C8.16657 22.4001 3.87463 20.7728 3.87463 20.7728C9.12588 20.5411 13.6931 22.8646 13.6931 22.8646Z" fill="#7FC736"/>
<path d="M9.71969 25.192L6.89165 27.4746C4.20752 25.8473 1.86585 23.7155 0 21.2145C6.84657 22.4926 9.71969 25.192 9.71969 25.192Z" fill="#39B54B"/>
<path d="M11.8081 6.6311C15.4074 6.44415 18.9828 9.17882 19.3962 13.1297C19.0096 12.6537 18.6566 12.1939 18.2757 11.758C17.8843 11.3097 17.4795 10.87 17.0555 10.4522C16.6363 10.0401 16.1902 9.65479 15.748 9.26562C15.3086 8.87836 14.8424 8.52448 14.3426 8.20685C16.5298 10.1765 18.1904 12.5087 19.3204 15.2577C19.2485 15.2405 19.2053 15.2396 19.1727 15.2214C18.5549 14.8704 17.8796 14.6768 17.1965 14.5041C16.5883 14.3506 15.9744 14.2113 15.394 13.9671C14.3982 13.5484 13.6365 12.8654 13.0859 11.9431C12.7492 11.3784 12.5401 10.7679 12.4643 10.1184C12.4269 9.79882 12.4374 9.47261 12.4384 9.14925C12.4403 8.69808 12.4422 8.24691 12.3635 7.79956C12.2926 7.39799 12.1352 7.03744 11.8676 6.72648C11.8494 6.7055 11.8378 6.67879 11.8081 6.6311Z" fill="#7FC736"/>
<path d="M20.7008 15.85C22.0784 12.5144 24.1179 9.64145 26.8663 7.22822C26.5775 7.31311 25.4052 8.18875 24.5572 8.9833C23.8569 9.63954 23.1624 10.3053 22.511 11.0074C21.8539 11.7161 21.2534 12.4753 20.6049 13.2394C20.6049 13.1535 20.5943 13.0782 20.6068 13.0066C20.9704 10.808 21.97 8.94896 23.6679 7.48958C24.9879 6.35545 26.5286 5.66678 28.2573 5.41687C28.6957 5.35392 29.1408 5.34151 29.583 5.31004C29.6703 5.30431 29.7595 5.31862 29.8842 5.3253C29.842 5.39588 29.8257 5.4369 29.7979 5.46838C29.3864 5.92908 29.1974 6.48327 29.1581 7.08324C29.1187 7.66985 29.1101 8.25933 29.113 8.84785C29.1206 10.395 28.5748 11.7218 27.5445 12.8674C26.7195 13.784 25.6748 14.3258 24.5006 14.6482C23.7965 14.8418 23.0876 15.0192 22.3834 15.2138C21.8558 15.3598 21.3531 15.5715 20.8735 15.8367C20.8342 15.8586 20.791 15.8748 20.7497 15.8939C20.7334 15.8796 20.7171 15.8643 20.7008 15.85Z" fill="#7FC736"/>
<path d="M17.7405 0C19.2783 0.767846 20.4055 1.922 21.0799 3.48535C21.7974 5.14886 21.8003 6.84385 21.1873 8.54742C20.9715 7.48674 20.7393 6.43369 20.4064 5.40545C20.0726 4.37625 19.6706 3.37662 19.1392 2.42945C19.4231 3.27455 19.6889 4.12252 19.875 4.99338C20.063 5.87474 20.1839 6.76468 20.2434 7.66415C20.3019 8.55219 20.2942 9.43449 20.1666 10.3216C19.8059 9.79505 19.3675 9.35342 18.9051 8.93277C18.53 8.59225 18.1463 8.26031 17.7895 7.90262C16.7918 6.90394 16.3793 5.68588 16.481 4.29326C16.5203 3.76102 16.6651 3.25071 16.9088 2.77092C17.1151 2.36554 17.3261 1.96302 17.5247 1.55382C17.752 1.08452 17.8058 0.588523 17.7146 0.0763077C17.7117 0.0629539 17.7233 0.0467385 17.7405 0Z" fill="#7FC736"/>
<path d="M21.9987 12.4678C21.9987 12.4678 19.6907 14.5691 19.8115 20.4696H18.6853C18.6853 20.4686 18.857 14.5796 21.9987 12.4678Z" fill="#7FC736"/>
</g>
<path d="M48.9432 10.3729H55.4431V12.8036H51.4096V15.181H55.4431V17.5762H51.4096V23.4706H48.9432V10.3729ZM64.5608 13.7831H66.9826V23.4706H64.5608V22.4466C64.0859 22.8978 63.608 23.2242 63.1272 23.4261C62.6523 23.6219 62.1359 23.7199 61.5779 23.7199C60.3254 23.7199 59.2421 23.2361 58.328 22.2685C57.4139 21.295 56.9568 20.0871 56.9568 18.6446C56.9568 17.1488 57.399 15.923 58.2835 14.9673C59.1679 14.0116 60.2423 13.5338 61.5067 13.5338C62.0884 13.5338 62.6345 13.6436 63.145 13.8632C63.6555 14.0828 64.1274 14.4123 64.5608 14.8516V13.7831ZM62.0053 15.7776C61.2515 15.7776 60.6252 16.0447 60.1266 16.5789C59.628 17.1072 59.3787 17.7869 59.3787 18.6179C59.3787 19.4549 59.6309 20.1435 60.1355 20.6836C60.646 21.2238 61.2722 21.4939 62.0142 21.4939C62.78 21.4939 63.4151 21.2298 63.9197 20.7015C64.4242 20.1672 64.6765 19.4697 64.6765 18.609C64.6765 17.7661 64.4242 17.0835 63.9197 16.5611C63.4151 16.0387 62.777 15.7776 62.0053 15.7776ZM68.8703 13.7831H70.9538V15.0029C71.1794 14.5221 71.4791 14.157 71.8531 13.9077C72.2271 13.6584 72.6366 13.5338 73.0818 13.5338C73.3964 13.5338 73.7259 13.6169 74.0702 13.7831L73.3133 15.8755C73.0284 15.733 72.7939 15.6618 72.6099 15.6618C72.236 15.6618 71.9184 15.8933 71.6572 16.3563C71.402 16.8193 71.2743 17.7275 71.2743 19.0809L71.2832 19.5528V23.4706H68.8703V13.7831ZM75.2633 13.7831H77.703V14.8961C78.1185 14.439 78.5785 14.0977 79.0831 13.8721C79.5936 13.6466 80.1486 13.5338 80.7481 13.5338C81.3536 13.5338 81.8997 13.6822 82.3865 13.979C82.8732 14.2758 83.265 14.7091 83.5618 15.2789C83.9476 14.7091 84.4195 14.2758 84.9775 13.979C85.5414 13.6822 86.1558 13.5338 86.8206 13.5338C87.5092 13.5338 88.1147 13.694 88.637 14.0146C89.1594 14.3351 89.5334 14.7536 89.7589 15.27C89.9904 15.7865 90.1062 16.6264 90.1062 17.7899V23.4706H87.6576V18.5556C87.6576 17.4574 87.5211 16.7154 87.248 16.3296C86.975 15.9378 86.5654 15.7419 86.0193 15.7419C85.6038 15.7419 85.2298 15.8607 84.8974 16.0981C84.5709 16.3355 84.3275 16.665 84.1673 17.0864C84.007 17.502 83.9269 18.1727 83.9269 19.0987V23.4706H81.4783V18.7782C81.4783 17.9115 81.413 17.2853 81.2824 16.8995C81.1577 16.5077 80.9678 16.2168 80.7125 16.0269C80.4573 15.8369 80.1486 15.7419 79.7865 15.7419C79.3829 15.7419 79.0148 15.8636 78.6824 16.107C78.3559 16.3445 78.1096 16.6798 77.9434 17.1132C77.7831 17.5465 77.703 18.2291 77.703 19.1611V23.4706H75.2633V13.7831ZM99.0725 10.3729H101.512L104.54 19.5083L107.611 10.3729H110.015L112.224 23.4706H109.82L108.413 15.1988L105.626 23.4706H103.427L100.675 15.1988L99.2417 23.4706H96.8109L99.0725 10.3729ZM121.119 13.7831H123.541V23.4706H121.119V22.4466C120.644 22.8978 120.166 23.2242 119.685 23.4261C119.21 23.6219 118.694 23.7199 118.136 23.7199C116.883 23.7199 115.8 23.2361 114.886 22.2685C113.972 21.295 113.515 20.0871 113.515 18.6446C113.515 17.1488 113.957 15.923 114.841 14.9673C115.726 14.0116 116.8 13.5338 118.065 13.5338C118.646 13.5338 119.192 13.6436 119.703 13.8632C120.213 14.0828 120.685 14.4123 121.119 14.8516V13.7831ZM118.563 15.7776C117.809 15.7776 117.183 16.0447 116.684 16.5789C116.186 17.1072 115.937 17.7869 115.937 18.6179C115.937 19.4549 116.189 20.1435 116.693 20.6836C117.204 21.2238 117.83 21.4939 118.572 21.4939C119.338 21.4939 119.973 21.2298 120.478 20.7015C120.982 20.1672 121.234 19.4697 121.234 18.609C121.234 17.7661 120.982 17.0835 120.478 16.5611C119.973 16.0387 119.335 15.7776 118.563 15.7776ZM126.292 10.2126H128.714V13.7831H130.156V15.8755H128.714V23.4706H126.292V15.8755H125.045V13.7831H126.292V10.2126ZM130.895 13.7831H132.979V15.0029C133.204 14.5221 133.504 14.157 133.878 13.9077C134.252 13.6584 134.662 13.5338 135.107 13.5338C135.421 13.5338 135.751 13.6169 136.095 13.7831L135.338 15.8755C135.053 15.733 134.819 15.6618 134.635 15.6618C134.261 15.6618 133.943 15.8933 133.682 16.3563C133.427 16.8193 133.299 17.7275 133.299 19.0809L133.308 19.5528V23.4706H130.895V13.7831ZM138.259 9.79411C138.686 9.79411 139.051 9.94844 139.354 10.2571C139.663 10.5658 139.817 10.9398 139.817 11.379C139.817 11.8123 139.666 12.1833 139.363 12.492C139.06 12.7947 138.698 12.9461 138.277 12.9461C137.843 12.9461 137.472 12.7918 137.164 12.4831C136.861 12.1685 136.709 11.7886 136.709 11.3434C136.709 10.916 136.861 10.5509 137.164 10.2482C137.466 9.94548 137.831 9.79411 138.259 9.79411ZM137.039 13.7831H139.479V23.4706H137.039V13.7831ZM140.814 13.7831H143.637L145.533 16.4276L147.457 13.7831H150.252L146.94 18.3686L150.662 23.4706H147.839L145.533 20.2919L143.254 23.4706H140.467L144.135 18.3686L140.814 13.7831Z" fill="#39B54B"/>
<defs>
<clipPath id="clip0_1_1610">
<rect width="39.2059" height="31" fill="white"/>
</clipPath>
</defs>
</svg>
