<svg width="18" height="18" viewBox="0 0 18 18" fill="none" xmlns="http://www.w3.org/2000/svg">
<path fill-rule="evenodd" clip-rule="evenodd" d="M13.9054 8.75721C14.0003 8.77062 14.0917 8.80263 14.1742 8.85139C14.2568 8.90015 14.3289 8.96471 14.3865 9.04138C14.444 9.11805 14.4859 9.20531 14.5097 9.29819C14.5335 9.39106 14.5388 9.48772 14.5252 9.58263C14.3424 10.847 13.7498 12.0165 12.8383 12.9117C11.9268 13.8068 10.7468 14.3782 9.47933 14.538V15.3124C9.47933 15.5058 9.40251 15.6913 9.26577 15.828C9.12902 15.9648 8.94355 16.0416 8.75017 16.0416C8.55678 16.0416 8.37131 15.9648 8.23457 15.828C8.09782 15.6913 8.021 15.5058 8.021 15.3124V14.538C6.75369 14.3779 5.5739 13.8064 4.66258 12.9113C3.75126 12.0162 3.15874 10.8469 2.9759 9.58263C2.94844 9.39117 2.99815 9.19665 3.11411 9.04186C3.23007 8.88706 3.40278 8.78467 3.59423 8.75721C3.78568 8.72975 3.9802 8.77947 4.135 8.89543C4.2898 9.01139 4.39219 9.18409 4.41965 9.37554C4.57154 10.4156 5.09271 11.3663 5.88787 12.0538C6.68302 12.7413 7.69904 13.1196 8.75017 13.1196C9.8013 13.1196 10.8173 12.7413 11.6125 12.0538C12.4076 11.3663 12.9288 10.4156 13.0807 9.37554C13.0943 9.28074 13.1264 9.18954 13.1752 9.10716C13.2241 9.02477 13.2887 8.95282 13.3653 8.8954C13.442 8.83798 13.5292 8.79622 13.622 8.77251C13.7148 8.7488 13.8106 8.7436 13.9054 8.75721ZM8.75017 1.45825C9.7171 1.45825 10.6444 1.84237 11.3282 2.52609C12.0119 3.20982 12.396 4.13715 12.396 5.10409V8.74992C12.396 9.71685 12.0119 10.6442 11.3282 11.3279C10.6444 12.0116 9.7171 12.3958 8.75017 12.3958C7.78323 12.3958 6.8559 12.0116 6.17217 11.3279C5.48845 10.6442 5.10433 9.71685 5.10433 8.74992V5.10409C5.10433 4.13715 5.48845 3.20982 6.17217 2.52609C6.8559 1.84237 7.78323 1.45825 8.75017 1.45825ZM8.75017 2.91659C8.17001 2.91659 7.61361 3.14705 7.20337 3.55729C6.79314 3.96753 6.56267 4.52392 6.56267 5.10409V8.74992C6.56267 9.33008 6.79314 9.88648 7.20337 10.2967C7.61361 10.707 8.17001 10.9374 8.75017 10.9374C9.33033 10.9374 9.88673 10.707 10.297 10.2967C10.7072 9.88648 10.9377 9.33008 10.9377 8.74992V5.10409C10.9377 4.52392 10.7072 3.96753 10.297 3.55729C9.88673 3.14705 9.33033 2.91659 8.75017 2.91659Z" fill="#383838"/>
</svg>
