<svg width="24" height="24" viewBox="0 0 24 24" fill="none" xmlns="http://www.w3.org/2000/svg">
<path fill-rule="evenodd" clip-rule="evenodd" d="M21.6802 2.84456L21.1328 2.7575L20.9892 2.22182L21.8149 2L21.6802 2.84456ZM14.3492 10.5138L13.8772 10.8044L13.8761 10.8033L13.8745 10.8005L13.8689 10.7917L13.8501 10.76L13.7835 10.6453C13.7059 10.5094 13.631 10.3721 13.5589 10.2332C13.3307 9.79686 13.1317 9.34576 12.9634 8.88294C12.7759 8.35945 12.6151 7.75999 12.5902 7.17995C12.5658 6.60212 12.6733 5.97493 13.1037 5.48306C13.4902 5.04165 14.2188 4.63517 14.9847 4.28359C15.7782 3.91815 16.7121 3.56768 17.5965 3.26435C18.6921 2.89026 19.7988 2.54925 20.9149 2.24178L20.9704 2.22625L20.9898 2.22071L21.1339 2.75695L21.6813 2.84401L21.6779 2.86453L21.6685 2.92331C21.6132 3.26351 21.5551 3.60327 21.4944 3.94255C21.3466 4.77691 21.1854 5.60882 21.0108 6.43797C20.8134 7.37015 20.5838 8.34725 20.3404 9.1652C20.2319 9.53918 20.1048 9.90748 19.9594 10.2687C19.833 10.5737 19.6833 10.8698 19.5014 11.0784C19.1121 11.5231 18.506 11.6623 17.9764 11.6978C17.4241 11.7349 16.8119 11.6678 16.2612 11.5702C15.7701 11.4818 15.2837 11.3689 14.8039 11.232C14.6075 11.1767 14.4123 11.1175 14.2183 11.0545L14.1834 11.0423L14.1739 11.039L14.1712 11.0384H14.17L14.3492 10.5138ZM14.3492 10.5138L13.8772 10.8044L13.9815 10.9735L14.17 11.0384L14.3492 10.5138ZM14.7218 10.0519C15.2897 10.2285 15.8677 10.3711 16.4525 10.4789C16.9649 10.5693 17.4773 10.6203 17.9021 10.5915C18.3507 10.5615 18.5759 10.4517 18.6662 10.3486C18.7239 10.282 18.8182 10.1245 18.9346 9.84395C19.0652 9.51842 19.1794 9.18658 19.2768 8.84966C19.508 8.07331 19.7304 7.12893 19.9256 6.20895C20.1129 5.31888 20.2845 4.42556 20.4402 3.52942L20.2689 3.57933C19.6539 3.76066 18.8232 4.0163 17.9564 4.31354C17.088 4.61132 16.1936 4.94793 15.4477 5.29119C14.6736 5.6472 14.1512 5.9705 13.9382 6.21394C13.768 6.40803 13.6804 6.70693 13.6987 7.13226C13.7164 7.55537 13.8379 8.03615 14.0076 8.50807C14.2013 9.04207 14.4402 9.55855 14.7218 10.0519ZM4.11404 4.24034L3.97041 4.77602L3.42253 4.86308L3.28833 4.01908L4.11404 4.24034ZM9.48308 11.0795L9.955 11.3695L9.95611 11.3684L9.95721 11.3662L9.96165 11.359L9.97773 11.3323L10.0332 11.2381C10.2984 10.775 10.5238 10.2903 10.707 9.78905C10.8611 9.35873 10.9953 8.8602 11.0158 8.37442C11.0369 7.89031 10.9471 7.35019 10.5733 6.9232C10.2428 6.545 9.63115 6.20784 9.01006 5.9217C8.3607 5.6228 7.59821 5.33666 6.87786 5.08989C5.98563 4.78548 5.08447 4.5079 4.17559 4.25753L4.13012 4.24477L4.11404 4.24034L3.97041 4.77602L3.42253 4.86308L3.4253 4.87972L3.43306 4.92796L3.46301 5.10874C3.6126 6.00573 3.78103 6.89948 3.96819 7.78939C4.12901 8.54799 4.31645 9.34487 4.51497 10.0131C4.61479 10.3469 4.71904 10.658 4.82828 10.9203C4.93198 11.1699 5.05897 11.4244 5.21868 11.6063C5.56249 12 6.09097 12.1165 6.5285 12.1453C6.98988 12.1763 7.49617 12.1203 7.94812 12.041C8.51567 11.9396 9.0753 11.798 9.62283 11.6174L9.65111 11.6079L9.65943 11.6052L9.6622 11.6041L9.48308 11.0795ZM9.48308 11.0795L9.955 11.3695L9.85074 11.5392L9.6622 11.6041L9.48308 11.0795ZM9.10988 10.617C9.145 10.5541 9.18604 10.4778 9.23299 10.388C9.36497 10.134 9.52911 9.78794 9.66275 9.41418C9.79862 9.03599 9.894 8.65613 9.90786 8.32729C9.92228 7.99512 9.85241 7.78384 9.73873 7.65297C9.58179 7.47441 9.17698 7.21932 8.54647 6.9293C7.94535 6.65258 7.22223 6.3803 6.51796 6.13908C5.90448 5.92958 5.28658 5.73323 4.6647 5.55016L4.66691 5.56402C4.76119 6.09638 4.89538 6.81506 5.05343 7.55981C5.21147 8.30622 5.3917 9.06981 5.57802 9.697C5.67174 10.0109 5.76379 10.282 5.85252 10.495C5.94679 10.7207 6.01777 10.8355 6.05326 10.8765C6.09873 10.9281 6.24569 11.0151 6.60281 11.039C6.93609 11.0612 7.34312 11.0212 7.7557 10.9486C8.21361 10.8664 8.6659 10.756 9.10988 10.617ZM7.89544 15.9034C7.75459 15.9112 7.68582 15.9311 7.66808 15.9389C7.41687 16.0526 6.65383 16.3187 5.99503 16.5433C5.65677 16.6592 5.33236 16.7679 5.0928 16.8483L5.07727 16.8539V19.85C5.17487 19.8456 5.27968 19.8417 5.3867 19.8378C5.84586 19.8212 6.39208 19.8046 6.62887 19.8146C7.62261 19.8539 8.36901 20.0891 9.05997 20.307L9.07494 20.312C9.72264 20.5161 10.3227 20.7035 11.1084 20.7628C11.3303 20.7795 11.546 20.8011 11.7473 20.821H11.75C12.5231 20.8987 13.0321 20.9375 13.4264 20.7944C13.7331 20.683 14.856 20.1623 15.9884 19.5927C16.5485 19.311 17.0975 19.0243 17.5339 18.7787C17.7529 18.6556 17.9387 18.5458 18.0812 18.4537C18.1518 18.4079 18.2088 18.3691 18.252 18.3373L18.3019 18.2985L18.3174 18.2851C18.3729 18.2291 18.4317 18.0339 18.3363 17.8504C18.2914 17.7645 18.2172 17.6976 18.1272 17.6618C18.0163 17.6136 17.8278 17.5764 17.5283 17.6258C16.8529 17.7367 16.0461 18.0617 15.2403 18.3894L15.2292 18.3944C14.8333 18.5552 14.4362 18.7166 14.0841 18.8341C13.7458 18.9467 13.3704 19.0476 13.0432 19.0282C12.594 19.0005 11.806 18.884 11.1561 18.7787C10.7826 18.7183 10.4096 18.6551 10.0371 18.589L9.96498 18.5763L9.93947 18.5713L10.0448 17.4711L12.5791 17.5016H12.5846C12.6142 17.4984 12.6435 17.4928 12.6722 17.4849C12.7599 17.4628 12.9101 17.4079 13.0992 17.2742C13.1575 17.2326 13.234 17.1561 13.3055 17.0535C13.3351 17.0106 13.3602 16.9689 13.3809 16.9282C13.072 16.9083 12.765 16.8649 12.4626 16.7984C12.298 16.7626 12.1347 16.721 11.973 16.6737L11.9541 16.6681L8.85036 15.9771L8.82096 15.9722L8.70451 15.9544C8.57768 15.9358 8.45025 15.9215 8.32243 15.9117C8.18043 15.8998 8.0378 15.897 7.89544 15.9034ZM8.95904 15.4343L9.05942 14.8891L9.0694 14.8908L12.2403 15.5962L12.2635 15.6034L12.268 15.6051L12.2891 15.6112L12.3767 15.6361C12.4537 15.6572 12.5647 15.686 12.6966 15.7149C12.9661 15.7731 13.3033 15.8269 13.615 15.8269C13.9272 15.8269 14.2665 15.9433 14.4495 16.2749C14.6059 16.5589 14.5671 16.8661 14.5122 17.069C14.4611 17.2484 14.3851 17.4198 14.2865 17.5781C14.4555 17.5116 14.634 17.4398 14.8222 17.3629L14.8566 17.3485C15.6207 17.038 16.5368 16.6653 17.3481 16.5317C18.2908 16.3775 18.9979 16.7158 19.3212 17.3413C19.6062 17.8931 19.543 18.6206 19.1077 19.0632C18.9984 19.1741 18.8359 19.2866 18.6807 19.387C18.4829 19.5121 18.2817 19.6318 18.0773 19.7458C17.6198 20.0031 17.0536 20.2987 16.4858 20.5843C15.3645 21.1482 14.1834 21.7 13.8041 21.8375C13.1464 22.076 12.3855 22 11.7096 21.9323L11.6391 21.9251C11.4346 21.9042 11.2297 21.8857 11.0247 21.8697C10.1042 21.7998 9.39879 21.5774 8.75442 21.3745L8.74056 21.37C8.04738 21.1516 7.42297 20.9569 6.58451 20.9231C6.4004 20.9159 5.90464 20.9292 5.42663 20.9469C5.15745 20.9567 4.88831 20.9676 4.61922 20.9796L4.54769 20.983L3.96764 21.0096V16.0542L4.45397 15.8929C4.84859 15.7617 5.24269 15.629 5.63625 15.4947C6.32609 15.259 7.02149 15.0145 7.21114 14.9291C7.41465 14.837 7.6459 14.8071 7.83111 14.796C8.02797 14.7849 8.23038 14.7932 8.40728 14.8065C8.62018 14.8235 8.83223 14.85 9.04278 14.8858L9.05443 14.888H9.05775L9.05886 14.8886H9.05997L8.95904 15.4343Z" fill="#383838"/>
<path fill-rule="evenodd" clip-rule="evenodd" d="M17.9148 6.0515C17.9702 6.09883 18.0156 6.15661 18.0487 6.22152C18.0817 6.28643 18.1016 6.35721 18.1072 6.42982C18.1129 6.50242 18.1042 6.57544 18.0817 6.64468C18.0591 6.71393 18.0231 6.77806 17.9758 6.8334C16.3227 8.76209 14.2648 11.5886 13.3565 13.886C13.3297 13.9538 13.2898 14.0155 13.2391 14.0679C13.1885 14.1202 13.128 14.162 13.0611 14.1909C12.9943 14.2199 12.9224 14.2354 12.8496 14.2365C12.7768 14.2377 12.7044 14.2245 12.6367 14.1977C12.569 14.1709 12.5072 14.131 12.4549 14.0803C12.4026 14.0296 12.3607 13.9692 12.3318 13.9023C12.3029 13.8355 12.2874 13.7636 12.2862 13.6908C12.2851 13.618 12.2983 13.5456 12.325 13.4779C13.3027 11.0052 15.4587 8.06559 17.1329 6.11195C17.2287 6.00033 17.3648 5.93131 17.5114 5.92008C17.6581 5.90885 17.8032 5.95632 17.9148 6.05206M6.95157 7.83046C6.89438 7.8756 6.84665 7.93156 6.8111 7.99515C6.77555 8.05874 6.75288 8.12871 6.74439 8.20107C6.73589 8.27342 6.74173 8.34674 6.76158 8.41684C6.78143 8.48693 6.8149 8.55243 6.86007 8.60959C8.10335 10.1873 9.46086 12.2063 10.1052 13.881C10.1606 14.0147 10.2659 14.1215 10.3988 14.1785C10.5318 14.2356 10.6817 14.2385 10.8168 14.1865C10.9518 14.1346 11.0611 14.0319 11.1215 13.9005C11.1819 13.769 11.1885 13.6192 11.14 13.4829C10.4352 11.6507 8.99504 9.52624 7.7307 7.92307C7.63971 7.80757 7.50658 7.73294 7.36058 7.71557C7.21458 7.6982 7.06711 7.73953 6.95157 7.83046Z" fill="#383838"/>
<path d="M1.75 14.791H5.07723V22H1.75V14.791Z" fill="#383838"/>
</svg>
