<svg width="18" height="19" viewBox="0 0 18 19" fill="none" xmlns="http://www.w3.org/2000/svg">
<path d="M4.66131 8.61864C4.29608 8.61864 4 8.92883 4 9.31144C4 9.69404 4.29608 10.0042 4.66131 10.0042V8.61864ZM9.07001 10.0042C9.43522 10.0042 9.73131 9.69404 9.73131 9.31144C9.73131 8.92883 9.43522 8.61864 9.07001 8.61864V10.0042ZM9.07001 8.61864C8.70479 8.61864 8.4087 8.92883 8.4087 9.31144C8.4087 9.69404 8.70479 10.0042 9.07001 10.0042V8.61864ZM13.4787 10.0042C13.8439 10.0042 14.14 9.69404 14.14 9.31144C14.14 8.92883 13.8439 8.61864 13.4787 8.61864V10.0042ZM9.73131 9.31144C9.73131 8.92883 9.43522 8.61864 9.07001 8.61864C8.70479 8.61864 8.4087 8.92883 8.4087 9.31144H9.73131ZM8.4087 13.9301C8.4087 14.3127 8.70479 14.6229 9.07001 14.6229C9.43522 14.6229 9.73131 14.3127 9.73131 13.9301H8.4087ZM8.4087 9.31144C8.4087 9.69404 8.70479 10.0042 9.07001 10.0042C9.43522 10.0042 9.73131 9.69404 9.73131 9.31144H8.4087ZM9.73131 4.6928C9.73131 4.31018 9.43522 4 9.07001 4C8.70479 4 8.4087 4.31018 8.4087 4.6928H9.73131ZM4.66131 10.0042H9.07001V8.61864H4.66131V10.0042ZM9.07001 10.0042H13.4787V8.61864H9.07001V10.0042ZM9.07001 9.31144H8.4087V9.31236C8.4087 9.31245 8.4087 9.31347 8.4087 9.31347C8.4087 9.31338 8.4087 9.31356 8.4087 9.31347C8.4087 9.31347 8.4087 9.31448 8.4087 9.31458C8.4087 9.31448 8.4087 9.31467 8.4087 9.31458C8.4087 9.31467 8.4087 9.31541 8.4087 9.3155C8.4087 9.31559 8.4087 9.31642 8.4087 9.31652C8.4087 9.31661 8.4087 9.31735 8.4087 9.31744C8.4087 9.31753 8.4087 9.31836 8.4087 9.31855C8.4087 9.31864 8.4087 9.31947 8.4087 9.31966C8.4087 9.31975 8.4087 9.32077 8.4087 9.32086C8.4087 9.32067 8.4087 9.32104 8.4087 9.32086C8.4087 9.32104 8.4087 9.3216 8.4087 9.32178C8.4087 9.3216 8.4087 9.32197 8.4087 9.32178C8.4087 9.32197 8.4087 9.32261 8.4087 9.32271C8.4087 9.32252 8.4087 9.32289 8.4087 9.32271C8.4087 9.32289 8.4087 9.32354 8.4087 9.32372C8.4087 9.32354 8.4087 9.32391 8.4087 9.32372C8.4087 9.32391 8.4087 9.32465 8.4087 9.32483C8.4087 9.32465 8.4087 9.32502 8.4087 9.32483C8.4087 9.32502 8.4087 9.32575 8.4087 9.32594C8.4087 9.32566 8.4087 9.32612 8.4087 9.32594C8.4087 9.32612 8.4087 9.32696 8.4087 9.32714C8.4087 9.32696 8.4087 9.32732 8.4087 9.32714C8.4087 9.32732 8.4087 9.32816 8.4087 9.32843C8.4087 9.32816 8.4087 9.32862 8.4087 9.32843C8.4087 9.32862 8.4087 9.32954 8.4087 9.32973C8.4087 9.32954 8.4087 9.32991 8.4087 9.32973C8.4087 9.33 8.4087 9.33084 8.4087 9.33111C8.4087 9.33084 8.4087 9.33139 8.4087 9.33111C8.4087 9.3313 8.4087 9.33231 8.4087 9.33259C8.4087 9.33231 8.4087 9.33277 8.4087 9.33259C8.4087 9.33287 8.4087 9.33379 8.4087 9.33407C8.4087 9.33379 8.4087 9.33434 8.4087 9.33407C8.4087 9.33434 8.4087 9.33545 8.4087 9.33573C8.4087 9.33545 8.4087 9.33601 8.4087 9.33573C8.4087 9.33601 8.4087 9.33712 8.4087 9.33739C8.4087 9.33712 8.4087 9.33767 8.4087 9.33739C8.4087 9.33767 8.4087 9.33878 8.4087 9.33915C8.4087 9.33887 8.4087 9.33943 8.4087 9.33915C8.4087 9.33952 8.4087 9.34063 8.4087 9.3409C8.4087 9.34127 8.4087 9.34155 8.4087 9.34192C8.4087 9.3422 8.4087 9.34247 8.4087 9.34284C8.4087 9.34321 8.4087 9.34349 8.4087 9.34386C8.4087 9.34414 8.4087 9.34451 8.4087 9.34478C8.4087 9.34515 8.4087 9.34552 8.4087 9.34589C8.4087 9.34617 8.4087 9.34654 8.4087 9.34691C8.4087 9.34728 8.4087 9.34755 8.4087 9.34792C8.4087 9.34829 8.4087 9.34866 8.4087 9.34903C8.4087 9.3494 8.4087 9.34977 8.4087 9.35014C8.4087 9.35051 8.4087 9.35088 8.4087 9.35125C8.4087 9.35162 8.4087 9.35208 8.4087 9.35245C8.4087 9.35282 8.4087 9.35319 8.4087 9.35356C8.4087 9.35402 8.4087 9.35439 8.4087 9.35476C8.4087 9.35522 8.4087 9.35559 8.4087 9.35596C8.4087 9.35642 8.4087 9.35679 8.4087 9.35725C8.4087 9.35762 8.4087 9.35809 8.4087 9.35845C8.4087 9.35892 8.4087 9.35938 8.4087 9.35975C8.4087 9.36021 8.4087 9.36067 8.4087 9.36113C8.4087 9.3615 8.4087 9.36196 8.4087 9.36243C8.4087 9.36289 8.4087 9.36335 8.4087 9.36381C8.4087 9.36418 8.4087 9.36464 8.4087 9.36511C8.4087 9.36557 8.4087 9.36612 8.4087 9.36658C8.4087 9.36704 8.4087 9.36751 8.4087 9.36797C8.4087 9.36843 8.4087 9.36889 8.4087 9.36945C8.4087 9.36991 8.4087 9.37037 8.4087 9.37092C8.4087 9.37139 8.4087 9.37194 8.4087 9.3724C8.4087 9.37286 8.4087 9.37342 8.4087 9.37388C8.4087 9.37443 8.4087 9.37499 8.4087 9.37545C8.4087 9.37601 8.4087 9.37656 8.4087 9.37702C8.4087 9.37758 8.4087 9.37813 8.4087 9.37868C8.4087 9.37915 8.4087 9.3797 8.4087 9.38025C8.4087 9.38081 8.4087 9.38136 8.4087 9.38192C8.4087 9.38247 8.4087 9.38303 8.4087 9.38358C8.4087 9.38413 8.4087 9.38478 8.4087 9.38533C8.4087 9.38589 8.4087 9.38644 8.4087 9.387C8.4087 9.38764 8.4087 9.3882 8.4087 9.38875C8.4087 9.3894 8.4087 9.38995 8.4087 9.3906C8.4087 9.39115 8.4087 9.3918 8.4087 9.39235C8.4087 9.393 8.4087 9.39365 8.4087 9.3942C8.4087 9.39485 8.4087 9.3955 8.4087 9.39614C8.4087 9.3967 8.4087 9.39734 8.4087 9.39799C8.4087 9.39864 8.4087 9.39928 8.4087 9.39993C8.4087 9.40058 8.4087 9.40122 8.4087 9.40187C8.4087 9.40252 8.4087 9.40316 8.4087 9.40381C8.4087 9.40455 8.4087 9.40519 8.4087 9.40584C8.4087 9.40658 8.4087 9.40723 8.4087 9.40787C8.4087 9.40861 8.4087 9.40926 8.4087 9.41C8.4087 9.41065 8.4087 9.41138 8.4087 9.41203C8.4087 9.41277 8.4087 9.41351 8.4087 9.41416C8.4087 9.41489 8.4087 9.41563 8.4087 9.41637C8.4087 9.41711 8.4087 9.41776 8.4087 9.4185C8.4087 9.41924 8.4087 9.41998 8.4087 9.42071C8.4087 9.42145 8.4087 9.42228 8.4087 9.42302C8.4087 9.42376 8.4087 9.4245 8.4087 9.42524C8.4087 9.42607 8.4087 9.42681 8.4087 9.42755C8.4087 9.42838 8.4087 9.42912 8.4087 9.42995C8.4087 9.43069 8.4087 9.43152 8.4087 9.43226C8.4087 9.43309 8.4087 9.43392 8.4087 9.43466C8.4087 9.43549 8.4087 9.43632 8.4087 9.43716C8.4087 9.43789 8.4087 9.43873 8.4087 9.43956C8.4087 9.44039 8.4087 9.44122 8.4087 9.44205C8.4087 9.44288 8.4087 9.44371 8.4087 9.44464C8.4087 9.44547 8.4087 9.4463 8.4087 9.44713C8.4087 9.44806 8.4087 9.44889 8.4087 9.44972C8.4087 9.45064 8.4087 9.45147 8.4087 9.4524C8.4087 9.45323 8.4087 9.45415 8.4087 9.45508C8.4087 9.45591 8.4087 9.45683 8.4087 9.45775C8.4087 9.45868 8.4087 9.45951 8.4087 9.46043C8.4087 9.46136 8.4087 9.46228 8.4087 9.46321C8.4087 9.46413 8.4087 9.46505 8.4087 9.46598C8.4087 9.46699 8.4087 9.46792 8.4087 9.46884C8.4087 9.46976 8.4087 9.47078 8.4087 9.4717C8.4087 9.47263 8.4087 9.47364 8.4087 9.47457C8.4087 9.47558 8.4087 9.47651 8.4087 9.47752C8.4087 9.47854 8.4087 9.47946 8.4087 9.48048C8.4087 9.48149 8.4087 9.48251 8.4087 9.48353C8.4087 9.48454 8.4087 9.48556 8.4087 9.48658C8.4087 9.48759 8.4087 9.48861 8.4087 9.48962C8.4087 9.49064 8.4087 9.49166 8.4087 9.49267C8.4087 9.49378 8.4087 9.4948 8.4087 9.49591C8.4087 9.49692 8.4087 9.49794 8.4087 9.49905C8.4087 9.50006 8.4087 9.50117 8.4087 9.50228C8.4087 9.50329 8.4087 9.5044 8.4087 9.50551C8.4087 9.50662 8.4087 9.50773 8.4087 9.50884C8.4087 9.50995 8.4087 9.51105 8.4087 9.51216C8.4087 9.51327 8.4087 9.51438 8.4087 9.51549C8.4087 9.5166 8.4087 9.5177 8.4087 9.51891C8.4087 9.52001 8.4087 9.52122 8.4087 9.52232C8.4087 9.52352 8.4087 9.52463 8.4087 9.52583C8.4087 9.52694 8.4087 9.52814 8.4087 9.52934C8.4087 9.53045 8.4087 9.53165 8.4087 9.53285C8.4087 9.53406 8.4087 9.53526 8.4087 9.53646C8.4087 9.53766 8.4087 9.53886 8.4087 9.54006C8.4087 9.54126 8.4087 9.54255 8.4087 9.54375C8.4087 9.54496 8.4087 9.54625 8.4087 9.54745C8.4087 9.54874 8.4087 9.54994 8.4087 9.55124C8.4087 9.55244 8.4087 9.55373 8.4087 9.55502C8.4087 9.55622 8.4087 9.55752 8.4087 9.55881C8.4087 9.5601 8.4087 9.5614 8.4087 9.56269C8.4087 9.56398 8.4087 9.56528 8.4087 9.56657C8.4087 9.56786 8.4087 9.56925 8.4087 9.57054C8.4087 9.57184 8.4087 9.57322 8.4087 9.57451C8.4087 9.5759 8.4087 9.57719 8.4087 9.57858C8.4087 9.57987 8.4087 9.58126 8.4087 9.58264C8.4087 9.58403 8.4087 9.58532 8.4087 9.58671C8.4087 9.58809 8.4087 9.58948 8.4087 9.59086C8.4087 9.59225 8.4087 9.59364 8.4087 9.59511C8.4087 9.5965 8.4087 9.59788 8.4087 9.59927C8.4087 9.60075 8.4087 9.60213 8.4087 9.60361C8.4087 9.605 8.4087 9.60648 8.4087 9.60786C8.4087 9.60934 8.4087 9.61082 8.4087 9.61229C8.4087 9.61368 8.4087 9.61516 8.4087 9.61664C8.4087 9.61811 8.4087 9.61959 8.4087 9.62107C8.4087 9.62255 8.4087 9.62412 8.4087 9.6256C8.4087 9.62707 8.4087 9.62864 8.4087 9.63012C8.4087 9.6316 8.4087 9.63317 8.4087 9.63474C8.4087 9.63622 8.4087 9.63779 8.4087 9.63936C8.4087 9.64084 8.4087 9.64241 8.4087 9.64398C8.4087 9.64555 8.4087 9.64712 8.4087 9.64869C8.4087 9.65026 8.4087 9.65183 8.4087 9.6534C8.4087 9.65506 8.4087 9.65663 8.4087 9.6582C8.4087 9.65987 8.4087 9.66144 8.4087 9.6631C8.4087 9.66467 8.4087 9.66633 8.4087 9.6679C8.4087 9.66957 8.4087 9.67123 8.4087 9.67289C8.4087 9.67455 8.4087 9.67622 8.4087 9.67788C8.4087 9.67954 8.4087 9.6812 8.4087 9.68287C8.4087 9.68453 8.4087 9.68619 8.4087 9.68795C8.4087 9.68961 8.4087 9.69137 8.4087 9.69303C8.4087 9.69478 8.4087 9.69645 8.4087 9.6982C8.4087 9.69996 8.4087 9.70162 8.4087 9.70337C8.4087 9.70513 8.4087 9.70688 8.4087 9.70864C8.4087 9.71039 8.4087 9.71215 8.4087 9.714C8.4087 9.71575 8.4087 9.71751 8.4087 9.71926C8.4087 9.72111 8.4087 9.72287 8.4087 9.72471C8.4087 9.72647 8.4087 9.72832 8.4087 9.73016C8.4087 9.73192 8.4087 9.73377 8.4087 9.73561C8.4087 9.73746 8.4087 9.73931 8.4087 9.74116C8.4087 9.743 8.4087 9.74485 8.4087 9.7467C8.4087 9.74854 8.4087 9.75048 8.4087 9.75233C8.4087 9.75427 8.4087 9.75612 8.4087 9.75806C8.4087 9.75991 8.4087 9.76185 8.4087 9.76379C8.4087 9.76563 8.4087 9.76757 8.4087 9.76951C8.4087 9.77145 8.4087 9.77339 8.4087 9.77533C8.4087 9.77727 8.4087 9.77921 8.4087 9.78124C8.4087 9.78319 8.4087 9.78512 8.4087 9.78716C8.4087 9.7891 8.4087 9.79113 8.4087 9.79307C8.4087 9.7951 8.4087 9.79713 8.4087 9.79916C8.4087 9.8011 8.4087 9.80314 8.4087 9.80517C8.4087 9.8072 8.4087 9.80923 8.4087 9.81136C8.4087 9.81339 8.4087 9.81542 8.4087 9.81745C8.4087 9.81958 8.4087 9.82161 8.4087 9.82374C8.4087 9.82577 8.4087 9.82789 8.4087 9.83002C8.4087 9.83205 8.4087 9.83417 8.4087 9.8363C8.4087 9.83842 8.4087 9.84055 8.4087 9.84267C8.4087 9.8448 8.4087 9.84692 8.4087 9.84914C8.4087 9.85126 8.4087 9.85339 8.4087 9.8556C8.4087 9.85773 8.4087 9.85995 8.4087 9.86216C8.4087 9.86429 8.4087 9.86651 8.4087 9.86872C8.4087 9.87094 8.4087 9.87316 8.4087 9.87537C8.4087 9.87759 8.4087 9.87981 8.4087 9.88202C8.4087 9.88424 8.4087 9.88655 8.4087 9.88877C8.4087 9.89098 8.4087 9.89329 8.4087 9.8956C8.4087 9.89782 8.4087 9.90013 8.4087 9.90244C8.4087 9.90465 8.4087 9.90696 8.4087 9.90927C8.4087 9.91158 8.4087 9.91389 8.4087 9.91629C8.4087 9.9186 8.4087 9.92091 8.4087 9.92322C8.4087 9.92562 8.4087 9.92793 8.4087 9.93033C8.4087 9.93264 8.4087 9.93505 8.4087 9.93745C8.4087 9.93985 8.4087 9.94216 8.4087 9.94456C8.4087 9.94696 8.4087 9.94936 8.4087 9.95186C8.4087 9.95426 8.4087 9.95666 8.4087 9.95906C8.4087 9.96156 8.4087 9.96396 8.4087 9.96645C8.4087 9.96885 8.4087 9.97135 8.4087 9.97384C8.4087 9.97634 8.4087 9.97874 8.4087 9.98123C8.4087 9.98373 8.4087 9.98622 8.4087 9.98871C8.4087 9.9913 8.4087 9.99379 8.4087 9.99629C8.4087 9.99887 8.4087 10.0014 8.4087 10.004C8.4087 10.0064 8.4087 10.009 8.4087 10.0116C8.4087 10.0141 8.4087 10.0167 8.4087 10.0193C8.4087 10.0219 8.4087 10.0245 8.4087 10.027C8.4087 10.0297 8.4087 10.0323 8.4087 10.0349C8.4087 10.0376 8.4087 10.0402 8.4087 10.0428C8.4087 10.0454 8.4087 10.0481 8.4087 10.0508C8.4087 10.0535 8.4087 10.0561 8.4087 10.0587C8.4087 10.0614 8.4087 10.0642 8.4087 10.0669C8.4087 10.0695 8.4087 10.0722 8.4087 10.075C8.4087 10.0777 8.4087 10.0804 8.4087 10.0831C8.4087 10.0859 8.4087 10.0887 8.4087 10.0913C8.4087 10.0941 8.4087 10.0969 8.4087 10.0997C8.4087 10.1024 8.4087 10.1052 8.4087 10.1081C8.4087 10.1108 8.4087 10.1136 8.4087 10.1165C8.4087 10.1192 8.4087 10.1221 8.4087 10.125C8.4087 10.1277 8.4087 10.1306 8.4087 10.1335C8.4087 10.1363 8.4087 10.1392 8.4087 10.1421C8.4087 10.1449 8.4087 10.1478 8.4087 10.1507C8.4087 10.1536 8.4087 10.1565 8.4087 10.1594C8.4087 10.1623 8.4087 10.1652 8.4087 10.1682C8.4087 10.1712 8.4087 10.1741 8.4087 10.1771C8.4087 10.1799 8.4087 10.183 8.4087 10.1859C8.4087 10.1889 8.4087 10.1918 8.4087 10.1949C8.4087 10.1978 8.4087 10.2009 8.4087 10.2039C8.4087 10.2069 8.4087 10.2099 8.4087 10.213C8.4087 10.216 8.4087 10.219 8.4087 10.222C8.4087 10.2252 8.4087 10.2282 8.4087 10.2313C8.4087 10.2343 8.4087 10.2375 8.4087 10.2405C8.4087 10.2437 8.4087 10.2467 8.4087 10.2499C8.4087 10.253 8.4087 10.2561 8.4087 10.2593C8.4087 10.2624 8.4087 10.2656 8.4087 10.2687C8.4087 10.2718 8.4087 10.2751 8.4087 10.2782C8.4087 10.2814 8.4087 10.2846 8.4087 10.2878C8.4087 10.291 8.4087 10.2942 8.4087 10.2974C8.4087 10.3007 8.4087 10.3039 8.4087 10.3071C8.4087 10.3104 8.4087 10.3136 8.4087 10.3169C8.4087 10.3201 8.4087 10.3234 8.4087 10.3267C8.4087 10.33 8.4087 10.3333 8.4087 10.3366C8.4087 10.3399 8.4087 10.3432 8.4087 10.3466C8.4087 10.3499 8.4087 10.3532 8.4087 10.3565C8.4087 10.3599 8.4087 10.3633 8.4087 10.3666C8.4087 10.37 8.4087 10.3734 8.4087 10.3768C8.4087 10.3802 8.4087 10.3836 8.4087 10.387C8.4087 10.3904 8.4087 10.3939 8.4087 10.3973C8.4087 10.4007 8.4087 10.4041 8.4087 10.4076C8.4087 10.411 8.4087 10.4146 8.4087 10.4181C8.4087 10.4215 8.4087 10.425 8.4087 10.4285C8.4087 10.432 8.4087 10.4355 8.4087 10.439C8.4087 10.4425 8.4087 10.4461 8.4087 10.4497C8.4087 10.4532 8.4087 10.4568 8.4087 10.4603C8.4087 10.4639 8.4087 10.4675 8.4087 10.4711C8.4087 10.4746 8.4087 10.4782 8.4087 10.4819C8.4087 10.4855 8.4087 10.4891 8.4087 10.4927C8.4087 10.4964 8.4087 10.5 8.4087 10.5037C8.4087 10.5073 8.4087 10.511 8.4087 10.5147C8.4087 10.5184 8.4087 10.5221 8.4087 10.5258C8.4087 10.5295 8.4087 10.5332 8.4087 10.5369C8.4087 10.5406 8.4087 10.5443 8.4087 10.5481C8.4087 10.5518 8.4087 10.5556 8.4087 10.5594C8.4087 10.5631 8.4087 10.5669 8.4087 10.5707C8.4087 10.5745 8.4087 10.5783 8.4087 10.5821C8.4087 10.5859 8.4087 10.5898 8.4087 10.5936C8.4087 10.5975 8.4087 10.6013 8.4087 10.6051C8.4087 10.609 8.4087 10.6129 8.4087 10.6168C8.4087 10.6206 8.4087 10.6245 8.4087 10.6285C8.4087 10.6324 8.4087 10.6362 8.4087 10.6402C8.4087 10.6442 8.4087 10.6481 8.4087 10.652C8.4087 10.656 8.4087 10.66 8.4087 10.664C8.4087 10.6679 8.4087 10.6719 8.4087 10.6759C8.4087 10.6799 8.4087 10.6839 8.4087 10.688C8.4087 10.6919 8.4087 10.696 8.4087 10.7001C8.4087 10.7041 8.4087 10.7082 8.4087 10.7123C8.4087 10.7163 8.4087 10.7204 8.4087 10.7245C8.4087 10.7286 8.4087 10.7327 8.4087 10.7368C8.4087 10.7409 8.4087 10.7451 8.4087 10.7492C8.4087 10.7534 8.4087 10.7575 8.4087 10.7617C8.4087 10.7658 8.4087 10.77 8.4087 10.7743C8.4087 10.7784 8.4087 10.7827 8.4087 10.7868C8.4087 10.7911 8.4087 10.7953 8.4087 10.7995C8.4087 10.8037 8.4087 10.808 8.4087 10.8123C8.4087 10.8166 8.4087 10.8208 8.4087 10.8251C8.4087 10.8294 8.4087 10.8336 8.4087 10.838C8.4087 10.8423 8.4087 10.8467 8.4087 10.851C8.4087 10.8553 8.4087 10.8597 8.4087 10.864C8.4087 10.8684 8.4087 10.8727 8.4087 10.8772C8.4087 10.8815 8.4087 10.8859 8.4087 10.8904C8.4087 10.8947 8.4087 10.8991 8.4087 10.9036C8.4087 10.908 8.4087 10.9124 8.4087 10.917C8.4087 10.9214 8.4087 10.9258 8.4087 10.9304C8.4087 10.9349 8.4087 10.9393 8.4087 10.9438C8.4087 10.9484 8.4087 10.9529 8.4087 10.9574C8.4087 10.962 8.4087 10.9665 8.4087 10.9711C8.4087 10.9756 8.4087 10.9802 8.4087 10.9848C8.4087 10.9894 8.4087 10.9939 8.4087 10.9985C8.4087 11.0032 8.4087 11.0078 8.4087 11.0124C8.4087 11.0171 8.4087 11.0217 8.4087 11.0263C8.4087 11.031 8.4087 11.0357 8.4087 11.0404C8.4087 11.0451 8.4087 11.0498 8.4087 11.0545C8.4087 11.0592 8.4087 11.0639 8.4087 11.0686C8.4087 11.0734 8.4087 11.0782 8.4087 11.0829C8.4087 11.0877 8.4087 11.0925 8.4087 11.0972C8.4087 11.102 8.4087 11.1068 8.4087 11.1116C8.4087 11.1164 8.4087 11.1213 8.4087 11.1261C8.4087 11.1309 8.4087 11.1358 8.4087 11.1407C8.4087 11.1455 8.4087 11.1504 8.4087 11.1553C8.4087 11.1602 8.4087 11.1651 8.4087 11.17C8.4087 11.175 8.4087 11.1799 8.4087 11.1848C8.4087 11.1897 8.4087 11.1947 8.4087 11.1996C8.4087 11.2046 8.4087 11.2096 8.4087 11.2146C8.4087 11.2196 8.4087 11.2247 8.4087 11.2297C8.4087 11.2346 8.4087 11.2397 8.4087 11.2447C8.4087 11.2498 8.4087 11.2549 8.4087 11.2599C8.4087 11.265 8.4087 11.2701 8.4087 11.2752C8.4087 11.2803 8.4087 11.2854 8.4087 11.2905C8.4087 11.2957 8.4087 11.3008 8.4087 11.306C8.4087 11.3111 8.4087 11.3163 8.4087 11.3215C8.4087 11.3266 8.4087 11.3318 8.4087 11.3371C8.4087 11.3423 8.4087 11.3474 8.4087 11.3527C8.4087 11.358 8.4087 11.3632 8.4087 11.3684C8.4087 11.3737 8.4087 11.379 8.4087 11.3843C8.4087 11.3895 8.4087 11.3948 8.4087 11.4002C8.4087 11.4054 8.4087 11.4108 8.4087 11.4162C8.4087 11.4215 8.4087 11.4269 8.4087 11.4322C8.4087 11.4376 8.4087 11.4429 8.4087 11.4484C8.4087 11.4537 8.4087 11.4592 8.4087 11.4646C8.4087 11.47 8.4087 11.4755 8.4087 11.4809C8.4087 11.4864 8.4087 11.4918 8.4087 11.4973C8.4087 11.5028 8.4087 11.5082 8.4087 11.5138C8.4087 11.5192 8.4087 11.5248 8.4087 11.5303C8.4087 11.5359 8.4087 11.5414 8.4087 11.547C8.4087 11.5525 8.4087 11.5581 8.4087 11.5637C8.4087 11.5693 8.4087 11.5748 8.4087 11.5805C8.4087 11.5861 8.4087 11.5918 8.4087 11.5974C8.4087 11.603 8.4087 11.6087 8.4087 11.6144C8.4087 11.62 8.4087 11.6257 8.4087 11.6315C8.4087 11.6371 8.4087 11.6428 8.4087 11.6486C8.4087 11.6543 8.4087 11.66 8.4087 11.6658C8.4087 11.6716 8.4087 11.6773 8.4087 11.6831C8.4087 11.6889 8.4087 11.6947 8.4087 11.7005C8.4087 11.7063 8.4087 11.7121 8.4087 11.718C8.4087 11.7238 8.4087 11.7297 8.4087 11.7356C8.4087 11.7414 8.4087 11.7473 8.4087 11.7532C8.4087 11.7591 8.4087 11.765 8.4087 11.771C8.4087 11.7769 8.4087 11.7828 8.4087 11.7888C8.4087 11.7947 8.4087 11.8007 8.4087 11.8067C8.4087 11.8126 8.4087 11.8186 8.4087 11.8247C8.4087 11.8307 8.4087 11.8367 8.4087 11.8427C8.4087 11.8488 8.4087 11.8548 8.4087 11.8609C8.4087 11.867 8.4087 11.8731 8.4087 11.8792C8.4087 11.8853 8.4087 11.8914 8.4087 11.8975C8.4087 11.9036 8.4087 11.9098 8.4087 11.916C8.4087 11.9221 8.4087 11.9283 8.4087 11.9345C8.4087 11.9406 8.4087 11.9468 8.4087 11.953C8.4087 11.9593 8.4087 11.9655 8.4087 11.9718C8.4087 11.978 8.4087 11.9842 8.4087 11.9905C8.4087 11.9968 8.4087 12.0031 8.4087 12.0094C8.4087 12.0157 8.4087 12.022 8.4087 12.0284C8.4087 12.0347 8.4087 12.0411 8.4087 12.0474C8.4087 12.0538 8.4087 12.0602 8.4087 12.0665C8.4087 12.0729 8.4087 12.0793 8.4087 12.0858C8.4087 12.0921 8.4087 12.0986 8.4087 12.1051C8.4087 12.1115 8.4087 12.118 8.4087 12.1245C8.4087 12.1309 8.4087 12.1374 8.4087 12.144C8.4087 12.1504 8.4087 12.157 8.4087 12.1635C8.4087 12.1701 8.4087 12.1767 8.4087 12.1832C8.4087 12.1898 8.4087 12.1963 8.4087 12.203C8.4087 12.2095 8.4087 12.2162 8.4087 12.2228C8.4087 12.2294 8.4087 12.2361 8.4087 12.2428C8.4087 12.2494 8.4087 12.2561 8.4087 12.2627C8.4087 12.2695 8.4087 12.2761 8.4087 12.2829C8.4087 12.2896 8.4087 12.2964 8.4087 12.3031C8.4087 12.3099 8.4087 12.3166 8.4087 12.3234C8.4087 12.3302 8.4087 12.337 8.4087 12.3439C8.4087 12.3506 8.4087 12.3574 8.4087 12.3643C8.4087 12.3712 8.4087 12.378 8.4087 12.3849C8.4087 12.3918 8.4087 12.3986 8.4087 12.4056C8.4087 12.4125 8.4087 12.4194 8.4087 12.4263C8.4087 12.4333 8.4087 12.4402 8.4087 12.4472C8.4087 12.4541 8.4087 12.4612 8.4087 12.4682C8.4087 12.4751 8.4087 12.4821 8.4087 12.4892C8.4087 12.4962 8.4087 12.5033 8.4087 12.5103C8.4087 12.5174 8.4087 12.5244 8.4087 12.5316C8.4087 12.5387 8.4087 12.5458 8.4087 12.5529C8.4087 12.56 8.4087 12.5671 8.4087 12.5743C8.4087 12.5814 8.4087 12.5886 8.4087 12.5958C8.4087 12.603 8.4087 12.6102 8.4087 12.6175C8.4087 12.6247 8.4087 12.6319 8.4087 12.6392C8.4087 12.6464 8.4087 12.6537 8.4087 12.6609C8.4087 12.6682 8.4087 12.6755 8.4087 12.6828C8.4087 12.6902 8.4087 12.6975 8.4087 12.7048C8.4087 12.7121 8.4087 12.7195 8.4087 12.7269C8.4087 12.7342 8.4087 12.7416 8.4087 12.7491C8.4087 12.7565 8.4087 12.7639 8.4087 12.7714C8.4087 12.7787 8.4087 12.7862 8.4087 12.7937C8.4087 12.8012 8.4087 12.8087 8.4087 12.8162C8.4087 12.8236 8.4087 12.8312 8.4087 12.8387C8.4087 12.8463 8.4087 12.8538 8.4087 12.8614C8.4087 12.869 8.4087 12.8766 8.4087 12.8841C8.4087 12.8917 8.4087 12.8994 8.4087 12.907C8.4087 12.9146 8.4087 12.9223 8.4087 12.93C8.4087 12.9376 8.4087 12.9453 8.4087 12.953C8.4087 12.9607 8.4087 12.9684 8.4087 12.9761C8.4087 12.9839 8.4087 12.9917 8.4087 12.9994C8.4087 13.0072 8.4087 13.0149 8.4087 13.0227C8.4087 13.0306 8.4087 13.0383 8.4087 13.0462C8.4087 13.054 8.4087 13.0619 8.4087 13.0697C8.4087 13.0776 8.4087 13.0854 8.4087 13.0934C8.4087 13.1012 8.4087 13.1092 8.4087 13.1171C8.4087 13.125 8.4087 13.133 8.4087 13.1409C8.4087 13.1489 8.4087 13.1568 8.4087 13.1649C8.4087 13.1728 8.4087 13.1808 8.4087 13.1889C8.4087 13.1969 8.4087 13.205 8.4087 13.213C8.4087 13.2211 8.4087 13.2292 8.4087 13.2373C8.4087 13.2453 8.4087 13.2534 8.4087 13.2616C8.4087 13.2697 8.4087 13.2778 8.4087 13.2861C8.4087 13.2942 8.4087 13.3023 8.4087 13.3105C8.4087 13.3188 8.4087 13.327 8.4087 13.3352C8.4087 13.3434 8.4087 13.3516 8.4087 13.36C8.4087 13.3682 8.4087 13.3765 8.4087 13.3848C8.4087 13.393 8.4087 13.4013 8.4087 13.4097C8.4087 13.4181 8.4087 13.4264 8.4087 13.4348C8.4087 13.4431 8.4087 13.4515 8.4087 13.4599C8.4087 13.4683 8.4087 13.4767 8.4087 13.4851C8.4087 13.4935 8.4087 13.502 8.4087 13.5104C8.4087 13.5189 8.4087 13.5274 8.4087 13.5359C8.4087 13.5444 8.4087 13.5529 8.4087 13.5615C8.4087 13.57 8.4087 13.5786 8.4087 13.5871C8.4087 13.5957 8.4087 13.6043 8.4087 13.6129C8.4087 13.6215 8.4087 13.6301 8.4087 13.6387C8.4087 13.6474 8.4087 13.656 8.4087 13.6647C8.4087 13.6734 8.4087 13.6821 8.4087 13.6907C8.4087 13.6995 8.4087 13.7082 8.4087 13.717C8.4087 13.7257 8.4087 13.7344 8.4087 13.7432C8.4087 13.752 8.4087 13.7608 8.4087 13.7696C8.4087 13.7784 8.4087 13.7873 8.4087 13.796C8.4087 13.8049 8.4087 13.8138 8.4087 13.8226C8.4087 13.8315 8.4087 13.8405 8.4087 13.8493C8.4087 13.8583 8.4087 13.8672 8.4087 13.8761C8.4087 13.8851 8.4087 13.8941 8.4087 13.9031C8.4087 13.9121 8.4087 13.921 8.4087 13.9301H9.73131C9.73131 13.921 9.73131 13.9121 9.73131 13.9031C9.73131 13.8941 9.73131 13.8851 9.73131 13.8761C9.73131 13.8672 9.73131 13.8583 9.73131 13.8493C9.73131 13.8405 9.73131 13.8315 9.73131 13.8226C9.73131 13.8138 9.73131 13.8049 9.73131 13.796C9.73131 13.7873 9.73131 13.7784 9.73131 13.7696C9.73131 13.7608 9.73131 13.752 9.73131 13.7432C9.73131 13.7344 9.73131 13.7257 9.73131 13.717C9.73131 13.7082 9.73131 13.6995 9.73131 13.6907C9.73131 13.6821 9.73131 13.6734 9.73131 13.6647C9.73131 13.656 9.73131 13.6474 9.73131 13.6387C9.73131 13.6301 9.73131 13.6215 9.73131 13.6129C9.73131 13.6043 9.73131 13.5957 9.73131 13.5871C9.73131 13.5786 9.73131 13.57 9.73131 13.5615C9.73131 13.5529 9.73131 13.5444 9.73131 13.5359C9.73131 13.5274 9.73131 13.5189 9.73131 13.5104C9.73131 13.502 9.73131 13.4935 9.73131 13.4851C9.73131 13.4767 9.73131 13.4683 9.73131 13.4599C9.73131 13.4515 9.73131 13.4431 9.73131 13.4348C9.73131 13.4264 9.73131 13.4181 9.73131 13.4097C9.73131 13.4013 9.73131 13.393 9.73131 13.3848C9.73131 13.3765 9.73131 13.3682 9.73131 13.36C9.73131 13.3516 9.73131 13.3434 9.73131 13.3352C9.73131 13.327 9.73131 13.3188 9.73131 13.3105C9.73131 13.3023 9.73131 13.2942 9.73131 13.2861C9.73131 13.2778 9.73131 13.2697 9.73131 13.2616C9.73131 13.2534 9.73131 13.2453 9.73131 13.2373C9.73131 13.2292 9.73131 13.2211 9.73131 13.213C9.73131 13.205 9.73131 13.1969 9.73131 13.1889C9.73131 13.1808 9.73131 13.1728 9.73131 13.1649C9.73131 13.1568 9.73131 13.1489 9.73131 13.1409C9.73131 13.133 9.73131 13.125 9.73131 13.1171C9.73131 13.1092 9.73131 13.1012 9.73131 13.0934C9.73131 13.0854 9.73131 13.0776 9.73131 13.0697C9.73131 13.0619 9.73131 13.054 9.73131 13.0462C9.73131 13.0383 9.73131 13.0306 9.73131 13.0227C9.73131 13.0149 9.73131 13.0072 9.73131 12.9994C9.73131 12.9917 9.73131 12.9839 9.73131 12.9761C9.73131 12.9684 9.73131 12.9607 9.73131 12.953C9.73131 12.9453 9.73131 12.9376 9.73131 12.93C9.73131 12.9223 9.73131 12.9146 9.73131 12.907C9.73131 12.8994 9.73131 12.8917 9.73131 12.8841C9.73131 12.8766 9.73131 12.869 9.73131 12.8614C9.73131 12.8538 9.73131 12.8463 9.73131 12.8387C9.73131 12.8312 9.73131 12.8236 9.73131 12.8162C9.73131 12.8087 9.73131 12.8012 9.73131 12.7937C9.73131 12.7862 9.73131 12.7787 9.73131 12.7714C9.73131 12.7639 9.73131 12.7565 9.73131 12.7491C9.73131 12.7416 9.73131 12.7342 9.73131 12.7269C9.73131 12.7195 9.73131 12.7121 9.73131 12.7048C9.73131 12.6975 9.73131 12.6902 9.73131 12.6828C9.73131 12.6755 9.73131 12.6682 9.73131 12.6609C9.73131 12.6537 9.73131 12.6464 9.73131 12.6392C9.73131 12.6319 9.73131 12.6247 9.73131 12.6175C9.73131 12.6102 9.73131 12.603 9.73131 12.5958C9.73131 12.5886 9.73131 12.5814 9.73131 12.5743C9.73131 12.5671 9.73131 12.56 9.73131 12.5529C9.73131 12.5458 9.73131 12.5387 9.73131 12.5316C9.73131 12.5244 9.73131 12.5174 9.73131 12.5103C9.73131 12.5033 9.73131 12.4962 9.73131 12.4892C9.73131 12.4821 9.73131 12.4751 9.73131 12.4682C9.73131 12.4612 9.73131 12.4541 9.73131 12.4472C9.73131 12.4402 9.73131 12.4333 9.73131 12.4263C9.73131 12.4194 9.73131 12.4125 9.73131 12.4056C9.73131 12.3986 9.73131 12.3918 9.73131 12.3849C9.73131 12.378 9.73131 12.3712 9.73131 12.3643C9.73131 12.3574 9.73131 12.3506 9.73131 12.3439C9.73131 12.337 9.73131 12.3302 9.73131 12.3234C9.73131 12.3166 9.73131 12.3099 9.73131 12.3031C9.73131 12.2964 9.73131 12.2896 9.73131 12.2829C9.73131 12.2761 9.73131 12.2695 9.73131 12.2627C9.73131 12.2561 9.73131 12.2494 9.73131 12.2428C9.73131 12.2361 9.73131 12.2294 9.73131 12.2228C9.73131 12.2162 9.73131 12.2095 9.73131 12.203C9.73131 12.1963 9.73131 12.1898 9.73131 12.1832C9.73131 12.1767 9.73131 12.1701 9.73131 12.1635C9.73131 12.157 9.73131 12.1504 9.73131 12.144C9.73131 12.1374 9.73131 12.1309 9.73131 12.1245C9.73131 12.118 9.73131 12.1115 9.73131 12.1051C9.73131 12.0986 9.73131 12.0921 9.73131 12.0858C9.73131 12.0793 9.73131 12.0729 9.73131 12.0665C9.73131 12.0602 9.73131 12.0538 9.73131 12.0474C9.73131 12.0411 9.73131 12.0347 9.73131 12.0284C9.73131 12.022 9.73131 12.0157 9.73131 12.0094C9.73131 12.0031 9.73131 11.9968 9.73131 11.9905C9.73131 11.9842 9.73131 11.978 9.73131 11.9718C9.73131 11.9655 9.73131 11.9593 9.73131 11.953C9.73131 11.9468 9.73131 11.9406 9.73131 11.9345C9.73131 11.9283 9.73131 11.9221 9.73131 11.916C9.73131 11.9098 9.73131 11.9036 9.73131 11.8975C9.73131 11.8914 9.73131 11.8853 9.73131 11.8792C9.73131 11.8731 9.73131 11.867 9.73131 11.8609C9.73131 11.8548 9.73131 11.8488 9.73131 11.8427C9.73131 11.8367 9.73131 11.8307 9.73131 11.8247C9.73131 11.8186 9.73131 11.8126 9.73131 11.8067C9.73131 11.8007 9.73131 11.7947 9.73131 11.7888C9.73131 11.7828 9.73131 11.7769 9.73131 11.771C9.73131 11.765 9.73131 11.7591 9.73131 11.7532C9.73131 11.7473 9.73131 11.7414 9.73131 11.7356C9.73131 11.7297 9.73131 11.7238 9.73131 11.718C9.73131 11.7121 9.73131 11.7063 9.73131 11.7005C9.73131 11.6947 9.73131 11.6889 9.73131 11.6831C9.73131 11.6773 9.73131 11.6716 9.73131 11.6658C9.73131 11.66 9.73131 11.6543 9.73131 11.6486C9.73131 11.6428 9.73131 11.6371 9.73131 11.6315C9.73131 11.6257 9.73131 11.62 9.73131 11.6144C9.73131 11.6087 9.73131 11.603 9.73131 11.5974C9.73131 11.5918 9.73131 11.5861 9.73131 11.5805C9.73131 11.5748 9.73131 11.5693 9.73131 11.5637C9.73131 11.5581 9.73131 11.5525 9.73131 11.547C9.73131 11.5414 9.73131 11.5359 9.73131 11.5303C9.73131 11.5248 9.73131 11.5192 9.73131 11.5138C9.73131 11.5082 9.73131 11.5028 9.73131 11.4973C9.73131 11.4918 9.73131 11.4864 9.73131 11.4809C9.73131 11.4755 9.73131 11.47 9.73131 11.4646C9.73131 11.4592 9.73131 11.4537 9.73131 11.4484C9.73131 11.4429 9.73131 11.4376 9.73131 11.4322C9.73131 11.4269 9.73131 11.4215 9.73131 11.4162C9.73131 11.4108 9.73131 11.4054 9.73131 11.4002C9.73131 11.3948 9.73131 11.3895 9.73131 11.3843C9.73131 11.379 9.73131 11.3737 9.73131 11.3684C9.73131 11.3632 9.73131 11.358 9.73131 11.3527C9.73131 11.3474 9.73131 11.3423 9.73131 11.3371C9.73131 11.3318 9.73131 11.3266 9.73131 11.3215C9.73131 11.3163 9.73131 11.3111 9.73131 11.306C9.73131 11.3008 9.73131 11.2957 9.73131 11.2905C9.73131 11.2854 9.73131 11.2803 9.73131 11.2752C9.73131 11.2701 9.73131 11.265 9.73131 11.2599C9.73131 11.2549 9.73131 11.2498 9.73131 11.2447C9.73131 11.2397 9.73131 11.2346 9.73131 11.2297C9.73131 11.2247 9.73131 11.2196 9.73131 11.2146C9.73131 11.2096 9.73131 11.2046 9.73131 11.1996C9.73131 11.1947 9.73131 11.1897 9.73131 11.1848C9.73131 11.1799 9.73131 11.175 9.73131 11.17C9.73131 11.1651 9.73131 11.1602 9.73131 11.1553C9.73131 11.1504 9.73131 11.1455 9.73131 11.1407C9.73131 11.1358 9.73131 11.1309 9.73131 11.1261C9.73131 11.1213 9.73131 11.1164 9.73131 11.1116C9.73131 11.1068 9.73131 11.102 9.73131 11.0972C9.73131 11.0925 9.73131 11.0877 9.73131 11.0829C9.73131 11.0782 9.73131 11.0734 9.73131 11.0686C9.73131 11.0639 9.73131 11.0592 9.73131 11.0545C9.73131 11.0498 9.73131 11.0451 9.73131 11.0404C9.73131 11.0357 9.73131 11.031 9.73131 11.0263C9.73131 11.0217 9.73131 11.0171 9.73131 11.0124C9.73131 11.0078 9.73131 11.0032 9.73131 10.9985C9.73131 10.9939 9.73131 10.9894 9.73131 10.9848C9.73131 10.9802 9.73131 10.9756 9.73131 10.9711C9.73131 10.9665 9.73131 10.962 9.73131 10.9574C9.73131 10.9529 9.73131 10.9484 9.73131 10.9438C9.73131 10.9393 9.73131 10.9349 9.73131 10.9304C9.73131 10.9258 9.73131 10.9214 9.73131 10.917C9.73131 10.9124 9.73131 10.908 9.73131 10.9036C9.73131 10.8991 9.73131 10.8947 9.73131 10.8904C9.73131 10.8859 9.73131 10.8815 9.73131 10.8772C9.73131 10.8727 9.73131 10.8684 9.73131 10.864C9.73131 10.8597 9.73131 10.8553 9.73131 10.851C9.73131 10.8467 9.73131 10.8423 9.73131 10.838C9.73131 10.8336 9.73131 10.8294 9.73131 10.8251C9.73131 10.8208 9.73131 10.8166 9.73131 10.8123C9.73131 10.808 9.73131 10.8037 9.73131 10.7995C9.73131 10.7953 9.73131 10.7911 9.73131 10.7868C9.73131 10.7827 9.73131 10.7784 9.73131 10.7743C9.73131 10.77 9.73131 10.7658 9.73131 10.7617C9.73131 10.7575 9.73131 10.7534 9.73131 10.7492C9.73131 10.7451 9.73131 10.7409 9.73131 10.7368C9.73131 10.7327 9.73131 10.7286 9.73131 10.7245C9.73131 10.7204 9.73131 10.7163 9.73131 10.7123C9.73131 10.7082 9.73131 10.7041 9.73131 10.7001C9.73131 10.696 9.73131 10.6919 9.73131 10.688C9.73131 10.6839 9.73131 10.6799 9.73131 10.6759C9.73131 10.6719 9.73131 10.6679 9.73131 10.664C9.73131 10.66 9.73131 10.656 9.73131 10.652C9.73131 10.6481 9.73131 10.6442 9.73131 10.6402C9.73131 10.6362 9.73131 10.6324 9.73131 10.6285C9.73131 10.6245 9.73131 10.6206 9.73131 10.6168C9.73131 10.6129 9.73131 10.609 9.73131 10.6051C9.73131 10.6013 9.73131 10.5975 9.73131 10.5936C9.73131 10.5898 9.73131 10.5859 9.73131 10.5821C9.73131 10.5783 9.73131 10.5745 9.73131 10.5707C9.73131 10.5669 9.73131 10.5631 9.73131 10.5594C9.73131 10.5556 9.73131 10.5518 9.73131 10.5481C9.73131 10.5443 9.73131 10.5406 9.73131 10.5369C9.73131 10.5332 9.73131 10.5295 9.73131 10.5258C9.73131 10.5221 9.73131 10.5184 9.73131 10.5147C9.73131 10.511 9.73131 10.5073 9.73131 10.5037C9.73131 10.5 9.73131 10.4964 9.73131 10.4927C9.73131 10.4891 9.73131 10.4855 9.73131 10.4819C9.73131 10.4782 9.73131 10.4746 9.73131 10.4711C9.73131 10.4675 9.73131 10.4639 9.73131 10.4603C9.73131 10.4568 9.73131 10.4532 9.73131 10.4497C9.73131 10.4461 9.73131 10.4425 9.73131 10.439C9.73131 10.4355 9.73131 10.432 9.73131 10.4285C9.73131 10.425 9.73131 10.4215 9.73131 10.4181C9.73131 10.4146 9.73131 10.411 9.73131 10.4076C9.73131 10.4041 9.73131 10.4007 9.73131 10.3973C9.73131 10.3939 9.73131 10.3904 9.73131 10.387C9.73131 10.3836 9.73131 10.3802 9.73131 10.3768C9.73131 10.3734 9.73131 10.37 9.73131 10.3666C9.73131 10.3633 9.73131 10.3599 9.73131 10.3565C9.73131 10.3532 9.73131 10.3499 9.73131 10.3466C9.73131 10.3432 9.73131 10.3399 9.73131 10.3366C9.73131 10.3333 9.73131 10.33 9.73131 10.3267C9.73131 10.3234 9.73131 10.3201 9.73131 10.3169C9.73131 10.3136 9.73131 10.3104 9.73131 10.3071C9.73131 10.3039 9.73131 10.3007 9.73131 10.2974C9.73131 10.2942 9.73131 10.291 9.73131 10.2878C9.73131 10.2846 9.73131 10.2814 9.73131 10.2782C9.73131 10.2751 9.73131 10.2718 9.73131 10.2687C9.73131 10.2656 9.73131 10.2624 9.73131 10.2593C9.73131 10.2561 9.73131 10.253 9.73131 10.2499C9.73131 10.2467 9.73131 10.2437 9.73131 10.2405C9.73131 10.2375 9.73131 10.2343 9.73131 10.2313C9.73131 10.2282 9.73131 10.2252 9.73131 10.222C9.73131 10.219 9.73131 10.216 9.73131 10.213C9.73131 10.2099 9.73131 10.2069 9.73131 10.2039C9.73131 10.2009 9.73131 10.1978 9.73131 10.1949C9.73131 10.1918 9.73131 10.1889 9.73131 10.1859C9.73131 10.183 9.73131 10.1799 9.73131 10.1771C9.73131 10.1741 9.73131 10.1712 9.73131 10.1682C9.73131 10.1652 9.73131 10.1623 9.73131 10.1594C9.73131 10.1565 9.73131 10.1536 9.73131 10.1507C9.73131 10.1478 9.73131 10.1449 9.73131 10.1421C9.73131 10.1392 9.73131 10.1363 9.73131 10.1335C9.73131 10.1306 9.73131 10.1277 9.73131 10.125C9.73131 10.1221 9.73131 10.1192 9.73131 10.1165C9.73131 10.1136 9.73131 10.1108 9.73131 10.1081C9.73131 10.1052 9.73131 10.1024 9.73131 10.0997C9.73131 10.0969 9.73131 10.0941 9.73131 10.0913C9.73131 10.0887 9.73131 10.0859 9.73131 10.0831C9.73131 10.0804 9.73131 10.0777 9.73131 10.075C9.73131 10.0722 9.73131 10.0695 9.73131 10.0669C9.73131 10.0642 9.73131 10.0614 9.73131 10.0587C9.73131 10.0561 9.73131 10.0535 9.73131 10.0508C9.73131 10.0481 9.73131 10.0454 9.73131 10.0428C9.73131 10.0402 9.73131 10.0376 9.73131 10.0349C9.73131 10.0323 9.73131 10.0297 9.73131 10.027C9.73131 10.0245 9.73131 10.0219 9.73131 10.0193C9.73131 10.0167 9.73131 10.0141 9.73131 10.0116C9.73131 10.009 9.73131 10.0064 9.73131 10.004C9.73131 10.0014 9.73131 9.99887 9.73131 9.99629C9.73131 9.99379 9.73131 9.9913 9.73131 9.98871C9.73131 9.98622 9.73131 9.98373 9.73131 9.98123C9.73131 9.97874 9.73131 9.97634 9.73131 9.97384C9.73131 9.97135 9.73131 9.96885 9.73131 9.96645C9.73131 9.96396 9.73131 9.96156 9.73131 9.95906C9.73131 9.95666 9.73131 9.95426 9.73131 9.95186C9.73131 9.94936 9.73131 9.94696 9.73131 9.94456C9.73131 9.94216 9.73131 9.93985 9.73131 9.93745C9.73131 9.93505 9.73131 9.93264 9.73131 9.93033C9.73131 9.92793 9.73131 9.92562 9.73131 9.92322C9.73131 9.92091 9.73131 9.9186 9.73131 9.91629C9.73131 9.91389 9.73131 9.91158 9.73131 9.90927C9.73131 9.90696 9.73131 9.90465 9.73131 9.90244C9.73131 9.90013 9.73131 9.89782 9.73131 9.8956C9.73131 9.89329 9.73131 9.89098 9.73131 9.88877C9.73131 9.88655 9.73131 9.88424 9.73131 9.88202C9.73131 9.87981 9.73131 9.87759 9.73131 9.87537C9.73131 9.87316 9.73131 9.87094 9.73131 9.86872C9.73131 9.86651 9.73131 9.86429 9.73131 9.86216C9.73131 9.85995 9.73131 9.85773 9.73131 9.8556C9.73131 9.85339 9.73131 9.85126 9.73131 9.84914C9.73131 9.84692 9.73131 9.8448 9.73131 9.84267C9.73131 9.84055 9.73131 9.83842 9.73131 9.8363C9.73131 9.83417 9.73131 9.83205 9.73131 9.83002C9.73131 9.82789 9.73131 9.82577 9.73131 9.82374C9.73131 9.82161 9.73131 9.81958 9.73131 9.81745C9.73131 9.81542 9.73131 9.81339 9.73131 9.81136C9.73131 9.80923 9.73131 9.8072 9.73131 9.80517C9.73131 9.80314 9.73131 9.8011 9.73131 9.79916C9.73131 9.79713 9.73131 9.7951 9.73131 9.79307C9.73131 9.79113 9.73131 9.7891 9.73131 9.78716C9.73131 9.78512 9.73131 9.78319 9.73131 9.78124C9.73131 9.77921 9.73131 9.77727 9.73131 9.77533C9.73131 9.77339 9.73131 9.77145 9.73131 9.76951C9.73131 9.76757 9.73131 9.76563 9.73131 9.76379C9.73131 9.76185 9.73131 9.75991 9.73131 9.75806C9.73131 9.75612 9.73131 9.75427 9.73131 9.75233C9.73131 9.75048 9.73131 9.74854 9.73131 9.7467C9.73131 9.74485 9.73131 9.743 9.73131 9.74116C9.73131 9.73931 9.73131 9.73746 9.73131 9.73561C9.73131 9.73377 9.73131 9.73192 9.73131 9.73016C9.73131 9.72832 9.73131 9.72647 9.73131 9.72471C9.73131 9.72287 9.73131 9.72111 9.73131 9.71926C9.73131 9.71751 9.73131 9.71575 9.73131 9.714C9.73131 9.71215 9.73131 9.71039 9.73131 9.70864C9.73131 9.70688 9.73131 9.70513 9.73131 9.70337C9.73131 9.70162 9.73131 9.69996 9.73131 9.6982C9.73131 9.69645 9.73131 9.69478 9.73131 9.69303C9.73131 9.69137 9.73131 9.68961 9.73131 9.68795C9.73131 9.68619 9.73131 9.68453 9.73131 9.68287C9.73131 9.6812 9.73131 9.67954 9.73131 9.67788C9.73131 9.67622 9.73131 9.67455 9.73131 9.67289C9.73131 9.67123 9.73131 9.66957 9.73131 9.6679C9.73131 9.66633 9.73131 9.66467 9.73131 9.6631C9.73131 9.66144 9.73131 9.65987 9.73131 9.6582C9.73131 9.65663 9.73131 9.65506 9.73131 9.6534C9.73131 9.65183 9.73131 9.65026 9.73131 9.64869C9.73131 9.64712 9.73131 9.64555 9.73131 9.64398C9.73131 9.64241 9.73131 9.64084 9.73131 9.63936C9.73131 9.63779 9.73131 9.63622 9.73131 9.63474C9.73131 9.63317 9.73131 9.6316 9.73131 9.63012C9.73131 9.62864 9.73131 9.62707 9.73131 9.6256C9.73131 9.62412 9.73131 9.62255 9.73131 9.62107C9.73131 9.61959 9.73131 9.61811 9.73131 9.61664C9.73131 9.61516 9.73131 9.61368 9.73131 9.61229C9.73131 9.61082 9.73131 9.60934 9.73131 9.60786C9.73131 9.60648 9.73131 9.605 9.73131 9.60361C9.73131 9.60213 9.73131 9.60075 9.73131 9.59927C9.73131 9.59788 9.73131 9.5965 9.73131 9.59511C9.73131 9.59364 9.73131 9.59225 9.73131 9.59086C9.73131 9.58948 9.73131 9.58809 9.73131 9.58671C9.73131 9.58532 9.73131 9.58403 9.73131 9.58264C9.73131 9.58126 9.73131 9.57987 9.73131 9.57858C9.73131 9.57719 9.73131 9.5759 9.73131 9.57451C9.73131 9.57322 9.73131 9.57184 9.73131 9.57054C9.73131 9.56925 9.73131 9.56786 9.73131 9.56657C9.73131 9.56528 9.73131 9.56398 9.73131 9.56269C9.73131 9.5614 9.73131 9.5601 9.73131 9.55881C9.73131 9.55752 9.73131 9.55622 9.73131 9.55502C9.73131 9.55373 9.73131 9.55244 9.73131 9.55124C9.73131 9.54994 9.73131 9.54874 9.73131 9.54745C9.73131 9.54625 9.73131 9.54496 9.73131 9.54375C9.73131 9.54255 9.73131 9.54126 9.73131 9.54006C9.73131 9.53886 9.73131 9.53766 9.73131 9.53646C9.73131 9.53526 9.73131 9.53406 9.73131 9.53285C9.73131 9.53165 9.73131 9.53045 9.73131 9.52934C9.73131 9.52814 9.73131 9.52694 9.73131 9.52583C9.73131 9.52463 9.73131 9.52352 9.73131 9.52232C9.73131 9.52122 9.73131 9.52001 9.73131 9.51891C9.73131 9.5177 9.73131 9.5166 9.73131 9.51549C9.73131 9.51438 9.73131 9.51327 9.73131 9.51216C9.73131 9.51105 9.73131 9.50995 9.73131 9.50884C9.73131 9.50773 9.73131 9.50662 9.73131 9.50551C9.73131 9.5044 9.73131 9.50329 9.73131 9.50228C9.73131 9.50117 9.73131 9.50006 9.73131 9.49905C9.73131 9.49794 9.73131 9.49692 9.73131 9.49591C9.73131 9.4948 9.73131 9.49378 9.73131 9.49267C9.73131 9.49166 9.73131 9.49064 9.73131 9.48962C9.73131 9.48861 9.73131 9.48759 9.73131 9.48658C9.73131 9.48556 9.73131 9.48454 9.73131 9.48353C9.73131 9.48251 9.73131 9.48149 9.73131 9.48048C9.73131 9.47946 9.73131 9.47854 9.73131 9.47752C9.73131 9.47651 9.73131 9.47558 9.73131 9.47457C9.73131 9.47364 9.73131 9.47263 9.73131 9.4717C9.73131 9.47078 9.73131 9.46976 9.73131 9.46884C9.73131 9.46792 9.73131 9.46699 9.73131 9.46598C9.73131 9.46505 9.73131 9.46413 9.73131 9.46321C9.73131 9.46228 9.73131 9.46136 9.73131 9.46043C9.73131 9.45951 9.73131 9.45868 9.73131 9.45775C9.73131 9.45683 9.73131 9.45591 9.73131 9.45508C9.73131 9.45415 9.73131 9.45323 9.73131 9.4524C9.73131 9.45147 9.73131 9.45064 9.73131 9.44972C9.73131 9.44889 9.73131 9.44806 9.73131 9.44713C9.73131 9.4463 9.73131 9.44547 9.73131 9.44464C9.73131 9.44371 9.73131 9.44288 9.73131 9.44205C9.73131 9.44122 9.73131 9.44039 9.73131 9.43956C9.73131 9.43873 9.73131 9.43789 9.73131 9.43716C9.73131 9.43632 9.73131 9.43549 9.73131 9.43466C9.73131 9.43392 9.73131 9.43309 9.73131 9.43226C9.73131 9.43152 9.73131 9.43069 9.73131 9.42995C9.73131 9.42912 9.73131 9.42838 9.73131 9.42755C9.73131 9.42681 9.73131 9.42607 9.73131 9.42524C9.73131 9.4245 9.73131 9.42376 9.73131 9.42302C9.73131 9.42228 9.73131 9.42145 9.73131 9.42071C9.73131 9.41998 9.73131 9.41924 9.73131 9.4185C9.73131 9.41776 9.73131 9.41711 9.73131 9.41637C9.73131 9.41563 9.73131 9.41489 9.73131 9.41416C9.73131 9.41351 9.73131 9.41277 9.73131 9.41203C9.73131 9.41138 9.73131 9.41065 9.73131 9.41C9.73131 9.40926 9.73131 9.40861 9.73131 9.40787C9.73131 9.40723 9.73131 9.40658 9.73131 9.40584C9.73131 9.40519 9.73131 9.40455 9.73131 9.40381C9.73131 9.40316 9.73131 9.40252 9.73131 9.40187C9.73131 9.40122 9.73131 9.40058 9.73131 9.39993C9.73131 9.39928 9.73131 9.39864 9.73131 9.39799C9.73131 9.39734 9.73131 9.3967 9.73131 9.39614C9.73131 9.3955 9.73131 9.39485 9.73131 9.3942C9.73131 9.39365 9.73131 9.393 9.73131 9.39235C9.73131 9.3918 9.73131 9.39115 9.73131 9.3906C9.73131 9.38995 9.73131 9.3894 9.73131 9.38875C9.73131 9.3882 9.73131 9.38764 9.73131 9.387C9.73131 9.38644 9.73131 9.38589 9.73131 9.38533C9.73131 9.38478 9.73131 9.38413 9.73131 9.38358C9.73131 9.38303 9.73131 9.38247 9.73131 9.38192C9.73131 9.38136 9.73131 9.38081 9.73131 9.38025C9.73131 9.3797 9.73131 9.37915 9.73131 9.37868C9.73131 9.37813 9.73131 9.37758 9.73131 9.37702C9.73131 9.37656 9.73131 9.37601 9.73131 9.37545C9.73131 9.37499 9.73131 9.37443 9.73131 9.37388C9.73131 9.37342 9.73131 9.37286 9.73131 9.3724C9.73131 9.37194 9.73131 9.37139 9.73131 9.37092C9.73131 9.37037 9.73131 9.36991 9.73131 9.36945C9.73131 9.36889 9.73131 9.36843 9.73131 9.36797C9.73131 9.36751 9.73131 9.36704 9.73131 9.36658C9.73131 9.36612 9.73131 9.36557 9.73131 9.36511C9.73131 9.36464 9.73131 9.36418 9.73131 9.36381C9.73131 9.36335 9.73131 9.36289 9.73131 9.36243C9.73131 9.36196 9.73131 9.3615 9.73131 9.36113C9.73131 9.36067 9.73131 9.36021 9.73131 9.35975C9.73131 9.35938 9.73131 9.35892 9.73131 9.35845C9.73131 9.35809 9.73131 9.35762 9.73131 9.35725C9.73131 9.35679 9.73131 9.35642 9.73131 9.35596C9.73131 9.35559 9.73131 9.35522 9.73131 9.35476C9.73131 9.35439 9.73131 9.35402 9.73131 9.35356C9.73131 9.35319 9.73131 9.35282 9.73131 9.35245C9.73131 9.35208 9.73131 9.35162 9.73131 9.35125C9.73131 9.35088 9.73131 9.35051 9.73131 9.35014C9.73131 9.34977 9.73131 9.3494 9.73131 9.34903C9.73131 9.34866 9.73131 9.34829 9.73131 9.34792C9.73131 9.34755 9.73131 9.34728 9.73131 9.34691C9.73131 9.34654 9.73131 9.34617 9.73131 9.34589C9.73131 9.34552 9.73131 9.34515 9.73131 9.34478C9.73131 9.34451 9.73131 9.34414 9.73131 9.34386C9.73131 9.34349 9.73131 9.34321 9.73131 9.34284C9.73131 9.34247 9.73131 9.3422 9.73131 9.34192C9.73131 9.34155 9.73131 9.34127 9.73131 9.3409C9.73131 9.34063 9.73131 9.34035 9.73131 9.33998C9.73131 9.3397 9.73131 9.34026 9.73131 9.33998C9.73131 9.33961 9.73131 9.3385 9.73131 9.33822C9.73131 9.33795 9.73131 9.3385 9.73131 9.33822C9.73131 9.33795 9.73131 9.33684 9.73131 9.33656C9.73131 9.33628 9.73131 9.33684 9.73131 9.33656C9.73131 9.33628 9.73131 9.33518 9.73131 9.3349C9.73131 9.33462 9.73131 9.33518 9.73131 9.3349C9.73131 9.33462 9.73131 9.33361 9.73131 9.33333C9.73131 9.33305 9.73131 9.33351 9.73131 9.33333C9.73131 9.33305 9.73131 9.33204 9.73131 9.33185C9.73131 9.33157 9.73131 9.33213 9.73131 9.33185C9.73131 9.33157 9.73131 9.33065 9.73131 9.33037C9.73131 9.33019 9.73131 9.33056 9.73131 9.33037C9.73131 9.33019 9.73131 9.32926 9.73131 9.32908C9.73131 9.3288 9.73131 9.32926 9.73131 9.32908C9.73131 9.3288 9.73131 9.32797 9.73131 9.32779C9.73131 9.3276 9.73131 9.32797 9.73131 9.32779C9.73131 9.3276 9.73131 9.32677 9.73131 9.32659C9.73131 9.32631 9.73131 9.32677 9.73131 9.32659C9.73131 9.3264 9.73131 9.32557 9.73131 9.32538C9.73131 9.3252 9.73131 9.32557 9.73131 9.32538C9.73131 9.3252 9.73131 9.32446 9.73131 9.32428C9.73131 9.32409 9.73131 9.32446 9.73131 9.32428C9.73131 9.32409 9.73131 9.32345 9.73131 9.32326C9.73131 9.32308 9.73131 9.32345 9.73131 9.32326C9.73131 9.32317 9.73131 9.32243 9.73131 9.32224C9.73131 9.32206 9.73131 9.32104 9.73131 9.32086C9.73131 9.32077 9.73131 9.31975 9.73131 9.31966C9.73131 9.31957 9.73131 9.31864 9.73131 9.31855C9.73131 9.31846 9.73131 9.31763 9.73131 9.31744C9.73131 9.31735 9.73131 9.3167 9.73131 9.31652C9.73131 9.31642 9.73131 9.31559 9.73131 9.3155C9.73131 9.31541 9.73131 9.31559 9.73131 9.3155C9.73131 9.31541 9.73131 9.31467 9.73131 9.31458C9.73131 9.31448 9.73131 9.31356 9.73131 9.31347C9.73131 9.31347 9.73131 9.31264 9.73131 9.31254C9.73131 9.31245 9.73131 9.31144 9.73131 9.31144H9.07001ZM9.73131 9.31144V4.6928H8.4087V9.31144H9.73131Z" fill="#4E4E4E"/>
</svg>
