<svg width="20" height="20" viewBox="0 0 20 20" fill="none" xmlns="http://www.w3.org/2000/svg">
<g clip-path="url(#clip0_59_146)">
<path d="M10 13.9744C12.1954 13.9744 13.975 12.1947 13.975 9.99941C13.975 7.80408 12.1954 6.02441 10 6.02441C7.80469 6.02441 6.02502 7.80408 6.02502 9.99941C6.02502 12.1947 7.80469 13.9744 10 13.9744Z" stroke="#39B54B" stroke-width="1.59167" stroke-miterlimit="10"/>
<path d="M10 2.83333C10.4373 2.83333 10.7917 2.47889 10.7917 2.04167C10.7917 1.60444 10.4373 1.25 10 1.25C9.56282 1.25 9.20837 1.60444 9.20837 2.04167C9.20837 2.47889 9.56282 2.83333 10 2.83333Z" stroke="#39B54B" stroke-width="1.59167" stroke-miterlimit="10"/>
<path d="M10 18.7493C10.4373 18.7493 10.7917 18.3949 10.7917 17.9577C10.7917 17.5205 10.4373 17.166 10 17.166C9.56282 17.166 9.20837 17.5205 9.20837 17.9577C9.20837 18.3949 9.56282 18.7493 10 18.7493Z" stroke="#39B54B" stroke-width="1.59167" stroke-miterlimit="10"/>
<path d="M2.04167 10.7921C2.47889 10.7921 2.83333 10.4376 2.83333 10.0004C2.83333 9.56318 2.47889 9.20874 2.04167 9.20874C1.60444 9.20874 1.25 9.56318 1.25 10.0004C1.25 10.4376 1.60444 10.7921 2.04167 10.7921Z" stroke="#39B54B" stroke-width="1.59167" stroke-miterlimit="10"/>
<path d="M17.9584 10.7921C18.3956 10.7921 18.75 10.4376 18.75 10.0004C18.75 9.56318 18.3956 9.20874 17.9584 9.20874C17.5211 9.20874 17.1667 9.56318 17.1667 10.0004C17.1667 10.4376 17.5211 10.7921 17.9584 10.7921Z" stroke="#39B54B" stroke-width="1.59167" stroke-miterlimit="10"/>
<path d="M4.37504 5.16707C4.81227 5.16707 5.16671 4.81263 5.16671 4.37541C5.16671 3.93818 4.81227 3.58374 4.37504 3.58374C3.93782 3.58374 3.58337 3.93818 3.58337 4.37541C3.58337 4.81263 3.93782 5.16707 4.37504 5.16707Z" stroke="#39B54B" stroke-width="1.59167" stroke-miterlimit="10"/>
<path d="M15.625 16.4171C16.0623 16.4171 16.4167 16.0626 16.4167 15.6254C16.4167 15.1882 16.0623 14.8337 15.625 14.8337C15.1878 14.8337 14.8334 15.1882 14.8334 15.6254C14.8334 16.0626 15.1878 16.4171 15.625 16.4171Z" stroke="#39B54B" stroke-width="1.59167" stroke-miterlimit="10"/>
<path d="M4.37504 16.4171C4.81227 16.4171 5.16671 16.0626 5.16671 15.6254C5.16671 15.1882 4.81227 14.8337 4.37504 14.8337C3.93782 14.8337 3.58337 15.1882 3.58337 15.6254C3.58337 16.0626 3.93782 16.4171 4.37504 16.4171Z" stroke="#39B54B" stroke-width="1.59167" stroke-miterlimit="10"/>
<path d="M15.625 5.16707C16.0623 5.16707 16.4167 4.81263 16.4167 4.37541C16.4167 3.93818 16.0623 3.58374 15.625 3.58374C15.1878 3.58374 14.8334 3.93818 14.8334 4.37541C14.8334 4.81263 15.1878 5.16707 15.625 5.16707Z" stroke="#39B54B" stroke-width="1.59167" stroke-miterlimit="10"/>
<path d="M10 2.84155V6.02489" stroke="#39B54B" stroke-width="1.59167" stroke-miterlimit="10"/>
<path d="M10 13.9756V17.1589" stroke="#39B54B" stroke-width="1.59167" stroke-miterlimit="10"/>
<path d="M2.84143 10H6.02476" stroke="#39B54B" stroke-width="1.59167" stroke-miterlimit="10"/>
<path d="M13.975 10H17.1583" stroke="#39B54B" stroke-width="1.59167" stroke-miterlimit="10"/>
<path d="M4.94177 4.94189L7.19177 7.1919" stroke="#39B54B" stroke-width="1.59167" stroke-miterlimit="10"/>
<path d="M12.8084 12.8086L15.0584 15.0586" stroke="#39B54B" stroke-width="1.59167" stroke-miterlimit="10"/>
<path d="M4.94177 15.0586L7.19177 12.8086" stroke="#39B54B" stroke-width="1.59167" stroke-miterlimit="10"/>
<path d="M12.8084 7.1919L15.0584 4.94189" stroke="#39B54B" stroke-width="1.59167" stroke-miterlimit="10"/>
</g>
<defs>
<clipPath id="clip0_59_146">
<rect width="20" height="20" fill="white"/>
</clipPath>
</defs>
</svg>
