<svg width="18" height="18" viewBox="0 0 18 18" fill="none" xmlns="http://www.w3.org/2000/svg">
<path d="M14.824 2.67616C14.686 2.5392 14.513 2.44292 14.3239 2.39789C14.1348 2.35287 13.937 2.36085 13.7521 2.42095L3.08439 5.97929C2.88655 6.04198 2.71172 6.16189 2.58199 6.32389C2.45226 6.48588 2.37344 6.68269 2.3555 6.88945C2.33755 7.09621 2.38128 7.30365 2.48116 7.48557C2.58105 7.6675 2.7326 7.81574 2.91669 7.91158L7.34273 10.0991L9.53023 14.5397C9.61815 14.7135 9.75269 14.8595 9.91881 14.9612C10.0849 15.0629 10.2761 15.1164 10.4709 15.1157H10.5438C10.7524 15.1004 10.9515 15.0226 11.1154 14.8926C11.2792 14.7626 11.4002 14.5862 11.4625 14.3866L15.0719 3.74804C15.1363 3.56424 15.1473 3.36591 15.1034 3.17615C15.0595 2.98639 14.9626 2.81299 14.824 2.67616ZM3.53648 6.98554L12.8479 3.87929L7.67814 9.04908L3.53648 6.98554ZM10.5219 13.9637L8.45106 9.82199L13.6209 4.6522L10.5219 13.9637Z" fill="white"/>
</svg>
