<svg width="146" height="115" viewBox="0 0 146 115" fill="none" xmlns="http://www.w3.org/2000/svg">
<g clip-path="url(#clip0_1_2207)">
<path d="M97.7618 78.424C96.9022 79.492 79.5806 63.207 86.9416 33.3513C94.3027 3.50079 89.2598 0 89.2598 0C89.2598 0 130.608 37.5762 97.7618 78.424Z" fill="#4FBE58"/>
<path d="M94.8236 12.3621C94.8236 12.3621 100.106 72.0266 97.1002 83.3261" stroke="#3D9445" stroke-width="0.381493" stroke-miterlimit="10"/>
<path d="M96.6105 35.904L105.368 24.3857" stroke="#3D9445" stroke-width="0.381493" stroke-miterlimit="10"/>
<path d="M97.2981 47.4013L108.723 34.5547" stroke="#3D9445" stroke-width="0.381493" stroke-miterlimit="10"/>
<path d="M85.7487 46.1199L97.7774 57.8621" stroke="#3D9445" stroke-width="0.381493" stroke-miterlimit="10"/>
<path d="M96.0218 27.4698L90.4111 20.5046" stroke="#3D9445" stroke-width="0.381493" stroke-miterlimit="10"/>
<path d="M97.5274 55.6532C98.6266 56.8827 98.96 58.607 100.215 59.7375C100.367 59.8729 100.538 60.0032 100.742 60.0188C101.075 60.0396 101.33 59.7323 101.492 59.4353C102.851 56.9296 101.184 54.0122 100.471 51.5742C99.2986 47.5629 98.8454 41.5459 105.034 42.5721C107.446 42.9733 109.494 44.8904 110.301 47.1721C110.671 48.2141 111.63 48.9955 112.739 49.0319C117.469 49.183 112.692 35.706 112.604 33.419C112.473 30.0068 115.531 28.2616 118.636 29.267C120.262 29.7932 121.699 30.9862 122.517 32.4865C123.236 33.8045 123.346 36.4093 125.528 35.8623C126.331 35.6591 127.003 35.0704 127.341 34.3151C128.706 31.2883 127.951 27.7928 129.217 24.766C130.618 21.4111 137.5 19.9837 140.042 22.7656C140.256 22.8698 140.454 23 140.641 23.1459C144.538 26.1413 146.028 33.3565 143.1 35.2788C140.282 37.1282 135.885 36.7271 133.119 38.6911C132.426 39.1808 132.098 40.0247 132.28 40.9728C132.775 43.5463 135.812 43.3223 137.693 43.9735C139.834 44.7133 141.938 46.2032 143.381 47.9952C146.132 51.4179 145.705 55.1531 141.725 55.4553C139.005 55.6637 120.434 51.8138 123.945 57.7006C124.606 58.8102 125.851 59.6541 127.097 59.9042C130.144 60.5189 133.421 62.6184 135.13 65.3429C139.49 72.3028 132.358 72.5789 127.159 71.7663C123.997 71.2714 119.793 69.7502 117.62 71.636C117.365 71.86 117.146 72.1934 117.339 72.5737C117.459 72.8029 117.699 72.9853 117.928 73.1364C119.871 74.4283 122.022 74.5846 123.997 75.6786C128.712 78.2938 128.389 83.1022 124.945 84.2118C121.976 85.1651 117.803 84.7796 114.266 84.0347C111.077 83.3626 107.873 82.4562 104.67 81.4195C102.617 80.7579 100.627 79.7212 98.7776 78.4344C98.5797 78.3042 98.3817 78.1792 98.189 78.0385C96.699 76.908 95.4592 75.4702 94.6048 73.8032C93.4379 71.5318 92.3804 69.2136 91.5208 66.8172C90.5622 64.1604 89.8433 60.8471 90.3486 58.0288C90.9529 54.7728 94.907 52.7151 97.5274 55.6532Z" fill="#5BD965"/>
<path d="M137.516 27.199L90.5779 90.1976" stroke="#3D9445" stroke-width="0.381493" stroke-miterlimit="10"/>
<path d="M46.9745 32.0123C54.1723 32.0124 60.4478 35.903 63.7577 41.6647L64.0389 42.153L64.4901 41.817C67.5477 39.5403 71.3614 38.1852 75.4911 38.1852C84.527 38.1852 92.0235 44.6489 93.5028 53.1295L93.58 53.5729L94.0302 53.5416C94.4717 53.5112 94.9134 53.4967 95.3602 53.4967C106.009 53.4967 114.635 62.015 114.636 72.5055C114.636 82.9961 106.01 91.5151 95.3553 91.5153H25.9432C15.2886 91.5151 6.66296 82.9961 6.66296 72.5055C6.66323 62.0151 15.2888 53.4968 25.9432 53.4967C26.385 53.4967 26.8273 53.5112 27.2635 53.5416L27.8563 53.5836L27.7958 52.9928C27.7297 52.3474 27.6942 51.6868 27.6942 51.0221C27.6942 40.5314 36.3198 32.0123 46.9745 32.0123Z" fill="url(#paint0_linear_1_2207)" stroke="white"/>
<path d="M75.7162 79.8978H41V67.7388H46.2251V74.7612H70.4858V67.7388H75.7162V79.8978Z" fill="#686867"/>
<path d="M52.513 58.6743V71.4376H64.2031V58.6743H69.2147L58.358 48L47.4962 58.6743H52.513Z" fill="#39B54B"/>
</g>
<defs>
<linearGradient id="paint0_linear_1_2207" x1="60.6493" y1="31.5123" x2="60.6493" y2="92.0156" gradientUnits="userSpaceOnUse">
<stop stop-color="#F1F1F1"/>
<stop offset="1" stop-color="#E5E5E5"/>
</linearGradient>
<clipPath id="clip0_1_2207">
<rect width="145.147" height="115" fill="white"/>
</clipPath>
</defs>
</svg>
