<svg width="18" height="18" viewBox="0 0 18 18" fill="none" xmlns="http://www.w3.org/2000/svg">
<path d="M13.446 14.7255H15.0495C15.1906 14.7277 15.33 14.6958 15.456 14.6323C15.582 14.5689 15.6908 14.4759 15.7731 14.3613C15.8553 14.2467 15.9086 14.1139 15.9284 13.9742C15.9481 13.8346 15.9338 13.6922 15.8865 13.5593C15.4777 12.6841 14.8303 11.9419 14.0189 11.4179C13.2074 10.8939 12.2646 10.6093 11.2988 10.5968M11.2988 8.52751C11.6597 8.52761 12.0171 8.4566 12.3506 8.31855C12.6841 8.18049 12.9871 7.97809 13.2424 7.7229C13.4976 7.46772 13.7001 7.16475 13.8383 6.8313C13.9764 6.49785 14.0475 6.14045 14.0475 5.77951C14.0485 5.41794 13.9781 5.05974 13.8404 4.72542C13.7027 4.3911 13.5004 4.08725 13.245 3.83127C12.9897 3.57529 12.6863 3.37221 12.3523 3.23369C12.0184 3.09516 11.6603 3.02391 11.2988 3.02401M7.00502 8.61376C7.83132 8.61177 8.62309 8.28208 9.20661 7.69702C9.79012 7.11196 10.1177 6.31932 10.1175 5.49301C10.1175 4.66733 9.78951 3.87546 9.20567 3.29161C8.62182 2.70776 7.82995 2.37976 7.00427 2.37976C6.17858 2.37976 5.38671 2.70776 4.80287 3.29161C4.21902 3.87546 3.89102 4.66733 3.89102 5.49301C3.89101 6.31932 4.2188 7.11188 4.80245 7.6968C5.38611 8.28172 6.17796 8.61122 7.00427 8.61301M10.5188 15.6203C10.7829 15.6199 11.0419 15.5464 11.2668 15.408C11.4918 15.2695 11.6741 15.0715 11.7935 14.8358C11.9128 14.6001 11.9646 14.336 11.9431 14.0727C11.9215 13.8094 11.8276 13.5572 11.6715 13.344C11.1249 12.6184 10.4211 12.0258 9.61298 11.6107C8.80484 11.1956 7.91327 10.9687 7.00502 10.947C6.0967 10.9688 5.20509 11.1958 4.39695 11.611C3.58881 12.0263 2.8851 12.619 2.33852 13.3448C2.18301 13.5579 2.08944 13.81 2.06815 14.073C2.04685 14.336 2.09866 14.5998 2.21785 14.8352C2.33703 15.0706 2.51897 15.2685 2.74355 15.4071C2.96814 15.5456 3.22664 15.6194 3.49052 15.6203H10.5188Z" stroke="#383838" stroke-width="1.2" stroke-linecap="round" stroke-linejoin="round"/>
</svg>
